<svg xmlns="http://www.w3.org/2000/svg" version="1.1" xmlns:xlink="http://www.w3.org/1999/xlink" viewBox="0 0 16.400016544111608 10.471345526274956"><g transform="matrix(0.8238261258261771,0,0,0.8238261258261771,4.651971499492769,8.157876970275513)"><g transform="matrix(1,0,0,1,0,0)" clip-path="url(#SvgjsClipPath4287)"><g clip-path="url(#SvgjsClipPath42823280198e-7cf6-4145-9131-4a50592592c9)"><path d=" M 5.587145233350018 -0.9887184140507275 L 5.561183883335456 -0.9780978617720422 C 5.157602896745442 -0.8081690253130906 4.73278080559806 -0.7232046070836136 4.306778653086382 -0.7232046070836136 C 3.8937571755819826 -0.7232046070836136 3.4807356980775843 -0.8034487798558967 3.0865952024019574 -0.963937125400463 L 3.0606338523873955 -0.9745576776791482 C 2.428120961123515 -1.2318110550961707 1.945475863125517 -1.6412923485076751 1.6115184970291034 -2.128657691962866 L 1.6103384356648052 -2.129837753327166 L 0.9129221693645198 -2.4142325421230515 C 0.9849059125867154 -2.2537441965784843 1.0698703308161912 -2.097976096491112 1.1654553013243523 -1.9492883645895285 C 1.5702163492786623 -1.3179555346899479 2.163787215520699 -0.8294101298704577 2.8836246477426526 -0.5367549115244854 L 2.9095859977572154 -0.526134359245801 C 3.359189377554861 -0.34322484777956497 3.828853800545577 -0.25 4.30795871445068 -0.25 C 4.801224364727362 -0.25 5.285049524089658 -0.34794509323675626 5.745273456165988 -0.5426552183459741 L 5.771234806180551 -0.5532757706246594 C 6.487532054309609 -0.8541914185207222 7.075202613730154 -1.3498171915260002 7.472883293498672 -1.9858702668827748 C 7.5661081412782405 -2.1357380601486566 7.6487124367791175 -2.292686221600328 7.719516118637015 -2.4531745671448943 L 7.023279913701028 -2.160519348798921 C 6.695222854426106 -1.6684337598865389 6.2172980018853 -1.2530521596535413 5.587145233350018 -0.9887184140507275 Z" fill="#2e2e39" transform="matrix(1,0,0,1,0,0)" fill-rule="nonzero"></path></g><g clip-path="url(#SvgjsClipPath42823280198e-7cf6-4145-9131-4a50592592c9)"><path d=" M 1.5926375152003303 -5.7538062030871915 C 1.9183344517466576 -6.247071853363874 2.3974393656517607 -6.661273392232571 3.026412072822745 -6.925607137835387 C 3.0370326251014292 -6.93032738329258 3.0476531773801128 -6.935047628749774 3.0594537910230963 -6.939767874206966 C 3.460674654884513 -7.108516649301621 3.8843166846675956 -7.192301006166799 4.306778653086382 -7.192301006166799 C 4.719800130590781 -7.192301006166799 5.132821608095179 -7.112056833394515 5.526962103770806 -6.951568487849949 L 5.552923453785368 -6.940947935571264 C 6.185436345049249 -6.683694558154239 6.668081443047246 -6.274213264742736 7.002038809143658 -5.7856678599232465 L 7.700635136808243 -5.501273071127359 C 7.628651393586047 -5.661761416671926 7.54368697535657 -5.817529516759299 7.448102004848408 -5.966217248660883 C 7.044521018258399 -6.595189955831868 6.450950152016363 -7.083735360651357 5.7311127197944085 -7.376390578997332 L 5.705151369779847 -7.387011131276016 C 5.255547989982201 -7.56992064274225 4.785883566991485 -7.6631454905218135 4.306778653086382 -7.6631454905218135 C 3.8170531869025943 -7.6631454905218135 3.337948272997491 -7.566380458649355 2.881264525014057 -7.375210517633033 C 2.867103788642477 -7.369310210811542 2.8529430522708976 -7.36340990399005 2.8399623772636167 -7.357509597168559 C 2.1260252518631546 -7.056593949272497 1.5395347538069082 -6.5609681762672185 1.1430341354026852 -5.92727522363904 C 1.049809287623122 -5.777407430373158 0.9672049921222419 -5.620459268921486 0.8964013102643449 -5.461150984741218 L 1.5914574538360338 -5.752626141722894 L 1.5926375152003303 -5.7538062030871915 Z" fill="#2e2e39" transform="matrix(1,0,0,1,0,0)" fill-rule="nonzero"></path></g><g clip-path="url(#SvgjsClipPath42823280198e-7cf6-4145-9131-4a50592592c9)"><path d=" M 1.6445602152294558 -3.4503264199769443 C 1.6433801538651576 -3.458586849527034 1.6422000925008575 -3.465667217712822 1.6398399697722619 -3.4739276472629097 C 1.6374798470436644 -3.489268444998787 1.6339396629507705 -3.5057893040989647 1.631579540222174 -3.5211301018348413 C 1.6303994788578757 -3.52939053138493 1.6292194174935766 -3.536470899570719 1.6280393561292792 -3.5447313291208076 C 1.626859294764981 -3.5482715132137024 1.626859294764981 -3.5529917586708963 1.6256792334006827 -3.5565319427637903 C 1.6244991720363844 -3.564792372313878 1.6233191106720861 -3.5718727404996677 1.6221390493077887 -3.5801331700497556 C 1.6197789265791904 -3.600194213242827 1.6162387424862965 -3.6190751950715985 1.613878619757699 -3.63913623826467 C 1.6126985583934008 -3.6473966678147587 1.6115184970291025 -3.6544770360005465 1.6115184970291025 -3.662737465550636 C 1.6091583743005051 -3.682798508743707 1.6067982515719095 -3.7028595519367773 1.6056181902076112 -3.7229205951298487 C 1.604438128843313 -3.731181024679937 1.604438128843313 -3.7394414542300236 1.6032580674790147 -3.7465218224158146 C 1.6032580674790147 -3.7500620065087085 1.6020780061147155 -3.7547822519659024 1.6020780061147155 -3.758322436058797 C 1.6008979447504172 -3.766582865608886 1.6008979447504172 -3.7748432951589725 1.6008979447504172 -3.781923663344762 C 1.599717883386118 -3.7984445224449384 1.598537822021819 -3.813785320180817 1.598537822021819 -3.8303061792809916 C 1.598537822021819 -3.8385666088310813 1.5973577606575207 -3.846827038381168 1.5973577606575207 -3.8539074065669574 C 1.5973577606575207 -3.8621678361170466 1.5973577606575207 -3.8704282656671336 1.5961776992932224 -3.877508633852924 C 1.5961776992932224 -3.8857690634030124 1.5961776992932224 -3.894029492953099 1.5949976379289241 -3.90110986113889 C 1.5949976379289241 -3.909370290688978 1.5949976379289241 -3.9176307202390643 1.5949976379289241 -3.9247110884248553 C 1.5949976379289241 -3.932971517974943 1.5949976379289241 -3.94123194752503 1.5949976379289241 -3.948312315710821 C 1.5949976379289241 -3.9648331748109955 1.5949976379289241 -3.9801739725468743 1.5949976379289241 -3.9966948316470505 C 1.5949976379289241 -4.004955261197138 1.5949976379289241 -4.013215690747227 1.5949976379289241 -4.020296058933016 C 1.5949976379289241 -4.0368169180331925 1.5961776992932224 -4.05215771576907 1.5961776992932224 -4.068678574869246 C 1.5961776992932224 -4.076939004419335 1.5973577606575207 -4.0851994339694215 1.5973577606575207 -4.093459863519509 C 1.5973577606575207 -4.097000047612404 1.5973577606575207 -4.101720293069599 1.598537822021819 -4.105260477162493 C 1.598537822021819 -4.113520906712582 1.599717883386118 -4.12178133626267 1.599717883386118 -4.1300417658127575 C 1.6008979447504172 -4.150102809005828 1.6020780061147155 -4.170163852198899 1.6044381288433112 -4.19022489539197 L -0.8819511657331705 -3.143510465259392 L 0.06209792570545547 -2.758810460498152 L 1.6469203379580497 -3.4255451313266816 C 1.6481003993223506 -3.434985622241067 1.645740276593754 -3.4420659904268565 1.6445602152294558 -3.4503264199769443 Z" fill="#7e909a" transform="matrix(1,0,0,1,0,0)" fill-rule="nonzero"></path></g><g clip-path="url(#SvgjsClipPath42823280198e-7cf6-4145-9131-4a50592592c9)"><path d=" M 1.6115184970291034 -2.128657691962869 L 3.28366545023977 -1.4477622847627591 C 3.280125266146876 -1.4489423461270565 3.2765850820539795 -1.4501224074913557 3.2730448979610856 -1.4524825302199504 C 3.265964529775296 -1.4548426529485496 3.2588841615895063 -1.4583828370414444 3.252983854768014 -1.460742959770041 C 3.229382627482048 -1.4701834506844262 3.2057814001960825 -1.4808040029631115 3.182180172910117 -1.491424555241796 C 3.1750998047243275 -1.4949647393346908 3.1691994979028353 -1.4973248620632873 3.1621191297170457 -1.5008650461561812 C 3.1585789456241518 -1.5020451075204786 3.155038761531256 -1.5044052302490751 3.1526786388026604 -1.5055852916133725 C 3.14559827061687 -1.5091254757062673 3.1396979637953786 -1.5114855984348665 3.132617595609589 -1.5150257825277604 C 3.129077411516695 -1.5162058438920578 3.1255372274237985 -1.5185659666206544 3.123177104695203 -1.5197460279849517 C 3.110196429687922 -1.525646334806443 3.09721575468064 -1.5327267029922336 3.084235079673361 -1.538627009813725 C 3.071254404666079 -1.5457073779995154 3.058273729658797 -1.5516076848210067 3.045293054651517 -1.5586880530067972 C 3.0287721955513414 -1.5669484825568851 3.013431397815463 -1.5752089121069712 2.9980906000795864 -1.5846494030213591 C 2.9945504159866925 -1.5858294643856583 2.992190293258095 -1.588189587114253 2.9886501091652002 -1.5893696484785522 C 2.979209618250815 -1.5940898939357444 2.969769127336428 -1.5999902007572375 2.960328636422042 -1.6047104462144288 C 2.9544283296005505 -1.6082506303073227 2.947347961414761 -1.6117908144002193 2.9414476545932686 -1.6153309984931141 C 2.91312618185011 -1.6318518575932899 2.88598477047125 -1.6483727166934656 2.85884335909239 -1.6648935757936423 C 2.8529430522708976 -1.6684337598865362 2.8470427454494063 -1.6719739439794328 2.841142438627915 -1.676694189436624 C 2.8352421318064227 -1.681414434893818 2.8293418249849323 -1.684954618986712 2.823441518163441 -1.6884948030796085 C 2.8140010272490557 -1.6943951099010999 2.805740597698966 -1.7002954167225912 2.7963001067845807 -1.7061957235440817 C 2.788039677234492 -1.712096030365573 2.7785991863201067 -1.7179963371870643 2.770338756770019 -1.7238966440085557 C 2.7585381431270353 -1.7321570735586453 2.7467375294840517 -1.7404175031087314 2.73493691584107 -1.7486779326588193 C 2.694814829454928 -1.7769994054019804 2.6546927430687868 -1.8065009395094354 2.616930779411242 -1.8371825349811903 C 2.6133905953183465 -1.8407227190740842 2.6086703498611525 -1.8430828418026843 2.6051301657682586 -1.8466230258955783 C 2.561467895289222 -1.8820248668245245 2.518985686174484 -1.9186067691177735 2.477683538424044 -1.9563687327753172 C 2.4753234156954473 -1.9587288555039137 2.4729632929668517 -1.9610889782325103 2.4706031702382543 -1.9634491009611077 C 2.4234007156663235 -2.0071113714401436 2.377378322458691 -2.051953703283478 2.3337160519796534 -2.0991561578554094 C 2.328995806522461 -2.1038764033126016 2.3242755610652672 -2.1097767101340947 2.3195553156080733 -2.114496955591287 C 2.314835070150881 -2.119217201048479 2.310114824693688 -2.123937446505672 2.3065746406007923 -2.128657691962866 C 2.3065746406007923 -2.128657691962866 2.305394579236493 -2.129837753327166 2.305394579236493 -2.129837753327166 C 2.3006743337793 -2.1345579987843584 2.295954088322108 -2.1392782442415506 2.292413904229212 -2.1439984896987445 C 2.28769365877202 -2.1487187351559376 2.282973413314826 -2.15461904197743 2.278253167857632 -2.159339287434622 C 2.274712983764738 -2.162879471527517 2.2711727996718425 -2.1664196556204116 2.268812676943247 -2.1711399010776047 C 2.2664525542146494 -2.173500023806203 2.2640924314860538 -2.177040207899097 2.2617323087574563 -2.1794003306276934 C 2.2581921246645615 -2.1829405147205883 2.255832001935965 -2.186480698813483 2.252291817843071 -2.190020882906378 C 2.2452114496572815 -2.1982813124564666 2.23813108147149 -2.2065417420065536 2.2310507132857023 -2.2148021715566415 C 2.212169731456929 -2.2372233374783086 2.194468810992455 -2.2596445033999757 2.1755878291636828 -2.2820656693216446 C 2.1649672768849983 -2.2962264056932247 2.154346724606314 -2.310387142064804 2.1437261723276277 -2.324547878436383 C 2.1342856814132425 -2.336348492079366 2.1260252518631537 -2.3493291670866476 2.1165847609487685 -2.3611297807296303 C 2.1118645154915754 -2.3670300875511217 2.107144270034383 -2.374110455736912 2.1024240245771884 -2.3800107625584035 C 2.100063901848591 -2.3835509466512974 2.0977037791199953 -2.385911069379894 2.0953436563913987 -2.3894512534727887 C 2.0894433495699074 -2.3977116830228775 2.083543042748415 -2.4059721125729645 2.078822797291222 -2.4142325421230524 C 2.0717424291054325 -2.4236730330374385 2.065842122283942 -2.4331135239518256 2.05994181546245 -2.4425540148662117 C 2.0587617540981507 -2.444914137594809 2.0575816927338524 -2.4460941989591056 2.056401631369555 -2.448454321687703 C 2.051681385912363 -2.4555346898734927 2.048141201819467 -2.461434996694985 2.043420956362275 -2.4685153648807745 C 2.0398807722693792 -2.4732356103379667 2.0375206495407827 -2.4779558557951598 2.033980465447888 -2.4826761012523546 C 2.022179851804906 -2.5003770217168277 2.0103792381619225 -2.519258003545601 1.999758685883239 -2.536958924010075 C 1.995038440426045 -2.5452193535601637 1.9903181949688529 -2.5534797831102516 1.9844178881473615 -2.5617402126603395 C 1.9808777040544676 -2.567640519481831 1.977337519961572 -2.5747208876676213 1.972617274504378 -2.5806211944891126 C 1.969077090411484 -2.586521501310603 1.9667169676828866 -2.591241746767797 1.9631767835899927 -2.5971420535892884 C 1.9478359858541152 -2.6242834649681477 1.9324951881182377 -2.6514248763470087 1.9183344517466585 -2.678566287725869 C 1.9171543903823602 -2.6809264104544672 1.9147942676537646 -2.684466594547361 1.9136142062894663 -2.6868267172759577 C 1.9124341449251672 -2.6903669013688525 1.9100740221965715 -2.692727024097449 1.9088939608322733 -2.696267208190343 C 1.907713899467975 -2.6986273309189404 1.9053537767393793 -2.702167515011836 1.9041737153750793 -2.7045276377404326 C 1.902993654010781 -2.7080678218333265 1.9006335312821854 -2.710427944561924 1.899453469917887 -2.713968128654818 C 1.898273408553588 -2.7175083127477118 1.8959132858249923 -2.719868435476309 1.894733224460694 -2.723408619569203 C 1.8911930403678001 -2.7304889877549936 1.8864727949106062 -2.7387494173050806 1.8829326108177122 -2.74582978549087 C 1.8758522426319209 -2.7599905218624503 1.8687718744461321 -2.7741512582340295 1.8628715676246408 -2.7871319332413105 C 1.8605114448960425 -2.7930322400628027 1.8569712608031486 -2.798932546884293 1.8546111380745511 -2.8048328537057845 C 1.8534310767102529 -2.8083730377986784 1.8510709539816572 -2.811913221891574 1.849890892617359 -2.8142733446201715 C 1.8487108312530607 -2.816633467348768 1.8475307698887615 -2.820173651441662 1.846350708524465 -2.8225337741702594 C 1.8451706471601659 -2.8260739582631533 1.8428105244315702 -2.829614142356049 1.841630463067272 -2.833154326448943 C 1.8392703403386754 -2.839054633270435 1.8357301562457797 -2.8449549400919265 1.8333700335171832 -2.850855246913417 C 1.832189972152884 -2.8543954310063118 1.8298298494242884 -2.8579356150992083 1.8286497880599901 -2.8614757991921023 C 1.8274697266956919 -2.863835921920699 1.8262896653313936 -2.8673761060135936 1.8251096039670962 -2.86973622874219 C 1.823929542602798 -2.873276412835084 1.8215694198742023 -2.8768165969279798 1.8203893585099031 -2.8803567810208754 C 1.8180292357813066 -2.886257087842367 1.815669113052711 -2.8921573946638572 1.8133089903241126 -2.8980577014853486 C 1.8074086835026213 -2.9110383764926304 1.802688438045429 -2.9240190514999123 1.7967881312239378 -2.9381797878714897 C 1.7932479471310439 -2.9476202787858767 1.7897077630381473 -2.9558807083359646 1.7861675789452525 -2.96532119925035 C 1.7849875175809542 -2.968861383343244 1.7826273948523585 -2.9735816288004395 1.7814473334880603 -2.9771218128933334 C 1.780267272123762 -2.97948193562193 1.7790872107594637 -2.9818420583505256 1.7790872107594637 -2.984202181079123 C 1.7779071493951646 -2.987742365172017 1.775547026666569 -2.992462610629212 1.7743669653022707 -2.9960027947221066 C 1.7731869039379724 -2.998362917450703 1.7720068425736741 -3.000723040179299 1.7720068425736741 -3.0030831629078953 C 1.770826781209374 -3.00662334700079 1.7684666584807784 -3.011343592457984 1.7672865971164802 -3.014883776550879 C 1.7554859834734975 -3.045565372022634 1.744865431194813 -3.0774270288586862 1.7342448789161287 -3.1092886856947413 C 1.7330648175518304 -3.1140089311519343 1.7318847561875321 -3.117549115244829 1.7295246334589365 -3.122269360702022 C 1.7283445720946382 -3.1246294834306205 1.7283445720946382 -3.126989606159216 1.72716451073034 -3.1281696675235144 C 1.722444265273146 -3.1423304038950937 1.717724019815953 -3.156491140266673 1.714183835723058 -3.170651876638253 C 1.7012031607157754 -3.215494208481587 1.6882224857084953 -3.2603365403249223 1.67760193342981 -3.3051788721682565 C 1.6764218720655117 -3.3098991176254495 1.6752418107012135 -3.315799424446941 1.674061749336916 -3.320519669904133 C 1.674061749336916 -3.3216997312684313 1.6728816879726178 -3.3240598539970287 1.6728816879726178 -3.325239915361327 C 1.6717016266083196 -3.329960160818519 1.6705215652440204 -3.3358604676400105 1.669341503879723 -3.3405807130972036 C 1.6634411970582326 -3.367722124476063 1.6575408902367403 -3.396043597219224 1.651640583415249 -3.4231850085980833 L 1.651640583415249 -3.4231850085980833 L 0.0668181711626552 -2.7564503377695537 L 0.0668181711626552 -2.7564503377695537 L 0.9141022307288225 -2.4106923580301567 L 0.9152822920931212 -2.4106923580301567 L 1.6126985583934061 -2.1262975692342705 L 1.6115184970291034 -2.128657691962869 Z" fill="#f0eadd" transform="matrix(1,0,0,1,0,0)" fill-rule="nonzero"></path></g><g clip-path="url(#SvgjsClipPath42823280198e-7cf6-4145-9131-4a50592592c9)"><path d=" M 2.402159611108954 -4.526542384216978 C 2.402159611108954 -4.527722445581277 2.402159611108954 -4.527722445581277 2.402159611108954 -4.526542384216978 L 3.8146930641739987 -5.122473373187611 C 3.9114580960464576 -5.163775520938051 4.014123434740409 -5.19209699368121 4.117968834798657 -5.207437791417088 C 4.128589387077342 -5.208617852781387 4.139209939356026 -5.210977975509982 4.149830491634712 -5.21215803687428 C 4.160451043913397 -5.213338098238579 4.17107159619208 -5.214518159602878 4.181692148470765 -5.215698220967175 C 4.192312700749452 -5.216878282331471 4.202933253028134 -5.2180583436957715 4.21355380530682 -5.2180583436957715 C 4.224174357585504 -5.21923840506007 4.234794909864189 -5.21923840506007 4.245415462142874 -5.220418466424369 C 4.2666565667002425 -5.221598527788667 4.287897671257612 -5.221598527788667 4.309138775814981 -5.221598527788667 C 4.328019757643754 -5.221598527788667 4.348080800836824 -5.221598527788667 4.366961782665597 -5.220418466424369 C 4.375222212215685 -5.220418466424369 4.384662703130072 -5.21923840506007 4.39292313268016 -5.21923840506007 C 4.401183562230248 -5.21923840506007 4.410624053144634 -5.2180583436957715 4.418884482694722 -5.216878282331473 C 4.541610864581744 -5.20625773005279 4.664337246468764 -5.176756195945332 4.783523444262892 -5.128373680009102 C 5.2909498309111545 -4.921862941256903 5.591865478807215 -4.421516922794431 5.5694443128855475 -3.902289922503187 L 6.277481131464517 -4.200845447670652 C 6.191336651870744 -4.890001284420848 5.745273456165991 -5.515433807498938 5.0561176194157955 -5.796288412201929 C 4.88146853749965 -5.867092094059826 4.702099210126311 -5.91193442590316 4.523909944117269 -5.930815407731933 C 4.514469453202884 -5.931995469096231 4.5062090236527945 -5.93317553046053 4.49676853273841 -5.93317553046053 C 4.489688164552619 -5.934355591824828 4.482607796366829 -5.934355591824828 4.474347366816743 -5.935535653189127 C 4.450746139530777 -5.937895775917725 4.427144912244811 -5.939075837282022 4.404723746323144 -5.9402558986463205 C 4.404723746323144 -5.9402558986463205 4.403543684958846 -5.9402558986463205 4.403543684958846 -5.9402558986463205 C 4.371682028122791 -5.941435960010619 4.341000432651037 -5.942616021374917 4.309138775814982 -5.942616021374917 C 4.297338162172 -5.942616021374917 4.285537548529017 -5.942616021374917 4.2725568735217365 -5.942616021374917 L 4.271376812157433 -5.942616021374917 C 4.25957619851445 -5.942616021374917 4.247775584871467 -5.942616021374917 4.235974971228485 -5.941435960010619 C 4.234794909864187 -5.941435960010619 4.233614848499888 -5.941435960010619 4.232434787135591 -5.941435960010619 C 4.220634173492607 -5.941435960010619 4.208833559849626 -5.9402558986463205 4.197032946206642 -5.9402558986463205 L 4.197032946206642 -5.9402558986463205 C 4.18405227119936 -5.939075837282022 4.1722516575563775 -5.939075837282022 4.159270982549096 -5.937895775917724 C 4.153370675727605 -5.937895775917724 4.146290307541816 -5.936715714553424 4.1403900007203225 -5.936715714553424 C 4.134489693898832 -5.936715714553424 4.129769448441639 -5.935535653189126 4.1238691416201485 -5.935535653189126 C 4.115608712070059 -5.934355591824827 4.10852834388427 -5.934355591824827 4.100267914334182 -5.933175530460528 C 4.0872872393269 -5.93199546909623 4.073126502955321 -5.929635346367634 4.060145827948041 -5.928455285003336 C 4.0436249688478645 -5.9260951622747395 4.027104109747689 -5.923735039546143 4.010583250647513 -5.9213749168175465 C 3.846554721010051 -5.896593628167283 3.687246436829783 -5.851751296323949 3.536198582199602 -5.788027982651841 L 3.536198582199602 -5.788027982651841 C 3.536198582199602 -5.788027982651841 3.5350185208353038 -5.788027982651841 3.5350185208353038 -5.788027982651841 L 3.5350185208353038 -5.7892080440161395 L 1.8380902789743727 -5.074090857251379 L -1.8271803185360929 -3.5305705927492275 L -0.8807711043688702 -3.1446905266236875 L -0.8795910430045717 -3.1446905266236875 L -0.8795910430045717 -3.1446905266236875 L 1.6067982515719113 -4.192585018120565 L 2.402159611108954 -4.526542384216978 Z" fill="#587284" transform="matrix(1,0,0,1,0,0)" fill-rule="nonzero"></path></g><g clip-path="url(#SvgjsClipPath42823280198e-7cf6-4145-9131-4a50592592c9)"><path d=" M 3.536198582199603 -5.788027982651844 L 3.536198582199603 -5.788027982651844 L 3.536198582199603 -5.786847921287545 C 3.536198582199603 -5.786847921287545 3.5373786435639003 -5.786847921287545 3.536198582199603 -5.788027982651844 C 3.7285485845802233 -5.867092094059828 3.9326992006038264 -5.917834732724655 4.141570062084622 -5.935535653189129 C 4.147470368906114 -5.935535653189129 4.1545507370919035 -5.9367157145534275 4.160451043913394 -5.9367157145534275 C 4.1722516575563775 -5.937895775917726 4.1852323325636585 -5.937895775917726 4.19821300757094 -5.939075837282025 C 4.26665656670024 -5.942616021374919 4.3362801871938395 -5.943796082739217 4.405903807687438 -5.940255898646323 C 4.429505034973404 -5.939075837282025 4.45310626225937 -5.937895775917726 4.475527428181037 -5.935535653189131 C 4.4826077963668265 -5.934355591824832 4.489688164552616 -5.934355591824832 4.497948594102704 -5.933175530460533 C 4.507389085017089 -5.9319954690962335 4.515649514567178 -5.9319954690962335 4.525090005481564 -5.930815407731935 C 4.704459332854904 -5.910754364538864 4.883828660228241 -5.867092094059828 5.05729768078009 -5.796288412201932 C 5.745273456165988 -5.515433807498942 6.1925167132350385 -4.890001284420851 6.278661192828812 -4.200845447670653 L 6.278661192828812 -4.200845447670653 L 6.278661192828812 -4.200845447670653 C 6.312882972393464 -3.931791456610645 6.292821929200393 -3.6556570973648466 6.211397695063809 -3.3854230449405387 L 6.210217633699511 -3.3854230449405387 C 6.210217633699511 -3.3854230449405387 6.210217633699511 -3.3854230449405387 6.210217633699511 -3.3842429835762404 C 6.192516713235037 -3.3240598539970287 6.171275608677668 -3.2650567857821136 6.146494320027404 -3.2060537175671993 C 5.9399835812752055 -2.6986273309189377 5.547023146963877 -2.323367817072084 5.078538785337458 -2.1251175078699722 L 5.078538785337458 -2.1251175078699722 L 6.775467027198388 -2.8402346946347325 C 6.783727456748478 -2.8579356150992057 6.791987886298566 -2.8756365355636797 6.7990682544843555 -2.8933374560281546 C 6.804968561305845 -2.9063181310354365 6.81086886812734 -2.920478867407015 6.815589113584531 -2.9334595424142966 C 6.920614575007079 -3.19189298119562 6.983157827314887 -3.456226726798434 7.0067590546008525 -3.720560472401251 C 7.0067590546008525 -3.720560472401251 7.0067590546008525 -3.7217405337655505 7.0067590546008525 -3.7217405337655505 C 7.0067590546008525 -3.7217405337655505 7.0067590546008525 -3.7217405337655505 7.0067590546008525 -3.7217405337655505 L 7.0067590546008525 -3.7217405337655505 C 7.0079391159651525 -3.7311810246799357 7.0079391159651525 -3.7406215155943223 7.0091191773294526 -3.74888194514441 C 7.0091191773294526 -3.74888194514441 7.0091191773294526 -3.7500620065087085 7.0091191773294526 -3.7500620065087085 C 7.028000159158223 -3.997874893011348 7.011479300058049 -4.245687779513987 6.964276845486118 -4.485240236466538 L 6.964276845486118 -4.485240236466538 C 6.964276845486118 -4.487600359195135 6.963096784121818 -4.489960481923731 6.963096784121818 -4.492320604652328 C 6.915894329549886 -4.728332877511985 6.8368302181419 -4.956084720821552 6.729444633990758 -5.1696758277595425 C 6.729444633990758 -5.1696758277595425 6.729444633990758 -5.1696758277595425 6.729444633990758 -5.1696758277595425 C 6.728264572626459 -5.172035950488139 6.727084511262161 -5.175576134581034 6.724724388533565 -5.17793625730963 C 6.724724388533565 -5.17793625730963 6.724724388533565 -5.17793625730963 6.724724388533565 -5.17793625730963 C 6.723544327169266 -5.180296380038227 6.722364265804968 -5.183836564131123 6.720004143076373 -5.18619668685972 C 6.720004143076373 -5.18619668685972 6.720004143076373 -5.18619668685972 6.720004143076373 -5.187376748224018 C 6.718824081712073 -5.189736870952615 6.717644020347775 -5.1920969936812105 6.7164639589834785 -5.194457116409808 C 6.7164639589834785 -5.195637177774106 6.71528389761918 -5.195637177774106 6.71528389761918 -5.196817239138404 C 6.714103836254882 -5.199177361867001 6.712923774890584 -5.2015374845955975 6.711743713526285 -5.203897607324196 C 6.711743713526285 -5.205077668688494 6.710563652161987 -5.205077668688494 6.710563652161987 -5.206257730052792 C 6.709383590797689 -5.208617852781389 6.708203529433391 -5.2109779755099845 6.707023468069092 -5.213338098238582 C 6.707023468069092 -5.21451815960288 6.705843406704794 -5.21451815960288 6.705843406704794 -5.2156982209671785 C 6.704663345340496 -5.218058343695775 6.703483283976196 -5.220418466424372 6.702303222611899 -5.22159852778867 C 6.702303222611899 -5.222778589152968 6.701123161247601 -5.223958650517268 6.701123161247601 -5.223958650517268 C 6.699943099883303 -5.226318773245865 6.6987630385190045 -5.227498834610162 6.697582977154706 -5.2298589573387595 C 6.697582977154706 -5.231039018703058 6.696402915790408 -5.232219080067356 6.696402915790408 -5.2333991414316525 C 6.69522285442611 -5.23575926416025 6.694042793061811 -5.236939325524547 6.694042793061811 -5.239299448253144 C 6.692862731697513 -5.240479509617442 6.692862731697513 -5.241659570981741 6.691682670333215 -5.242839632346039 C 6.690502608968917 -5.244019693710337 6.6893225476046165 -5.246379816438933 6.6893225476046165 -5.247559877803232 C 6.688142486240318 -5.248739939167531 6.688142486240318 -5.249920000531829 6.68696242487602 -5.2511000618961265 C 6.68578236351172 -5.252280123260425 6.684602302147422 -5.2546402459890205 6.684602302147422 -5.25582030735332 C 6.683422240783123 -5.257000368717618 6.683422240783123 -5.258180430081916 6.682242179418825 -5.259360491446213 C 6.681062118054527 -5.260540552810511 6.681062118054527 -5.2629006755391075 6.679882056690229 -5.264080736903406 C 6.67870199532593 -5.265260798267704 6.67870199532593 -5.266440859632002 6.677521933961632 -5.268800982360599 C 6.676341872597334 -5.269981043724897 6.676341872597334 -5.272341166453494 6.675161811233034 -5.273521227817792 C 6.6739817498687355 -5.27470128918209 6.6739817498687355 -5.277061411910687 6.672801688504437 -5.278241473274985 C 6.671621627140139 -5.279421534639283 6.671621627140139 -5.2806015960035815 6.670441565775841 -5.281781657367879 C 6.669261504411542 -5.282961718732178 6.668081443047242 -5.285321841460773 6.668081443047242 -5.286501902825071 C 6.666901381682944 -5.28768196418937 6.666901381682944 -5.2888620255536685 6.665721320318646 -5.290042086917966 C 6.664541258954348 -5.291222148282264 6.663361197590049 -5.29358227101086 6.662181136225751 -5.294762332375159 C 6.661001074861453 -5.295942393739458 6.661001074861453 -5.297122455103756 6.6598210134971545 -5.298302516468054 C 6.658640952132856 -5.30066263919665 6.657460890768558 -5.3018427005609485 6.65628082940426 -5.304202823289545 C 6.65628082940426 -5.305382884653843 6.655100768039961 -5.306562946018142 6.655100768039961 -5.306562946018142 C 6.653920706675663 -5.308923068746738 6.652740645311365 -5.310103130111036 6.651560583947068 -5.312463252839633 C 6.651560583947068 -5.313643314203931 6.65038052258277 -5.3148233755682295 6.65038052258277 -5.3148233755682295 C 6.64920046121847 -5.317183498296828 6.648020399854172 -5.319543621025423 6.646840338489875 -5.320723682389723 C 6.646840338489875 -5.321903743754021 6.645660277125575 -5.321903743754021 6.645660277125575 -5.323083805118319 C 6.644480215761277 -5.325443927846916 6.643300154396979 -5.327804050575512 6.6421200930326805 -5.330164173304109 C 6.6421200930326805 -5.331344234668407 6.640940031668382 -5.331344234668407 6.640940031668382 -5.332524296032705 C 6.639759970304084 -5.334884418761302 6.638579908939786 -5.337244541489898 6.636219786211191 -5.339604664218497 C 6.636219786211191 -5.339604664218497 6.636219786211191 -5.340784725582795 6.635039724846891 -5.340784725582795 C 6.633859663482593 -5.3431448483113915 6.631499540753998 -5.346685032404286 6.6303194793897 -5.349045155132883 C 6.6303194793897 -5.349045155132883 6.6303194793897 -5.349045155132883 6.6303194793897 -5.349045155132883 C 6.629139418025401 -5.351405277861479 6.626779295296805 -5.354945461954374 6.6255992339325065 -5.357305584682971 C 6.6255992339325065 -5.357305584682971 6.6255992339325065 -5.357305584682971 6.6255992339325065 -5.357305584682971 C 6.624419172568208 -5.359665707411569 6.622059049839612 -5.363205891504464 6.620878988475313 -5.36556601423306 C 6.620878988475313 -5.36556601423306 6.620878988475313 -5.36556601423306 6.620878988475313 -5.36556601423306 C 6.332944015586532 -5.836410498588075 5.899861494889063 -6.223470626077912 5.353493083218957 -6.4512224693874805 C 5.346412715033168 -6.453582592116077 5.339332346847376 -6.457122776208971 5.333432040025887 -6.459482898937568 C 5.270888787718077 -6.485444248952132 5.2071654740459685 -6.507865414873799 5.143442160373863 -6.529106519431167 C 5.132821608095178 -6.532646703524062 5.122201055816494 -6.5361868876169575 5.1104004421735105 -6.5397270717098515 C 5.089159337616143 -6.545627378531343 5.069098294423071 -6.552707746717133 5.047857189865702 -6.558608053538625 C 5.037236637587019 -6.5621482376315186 5.025436023944035 -6.564508360360115 5.014815471665352 -6.56804854445301 C 4.41770442133042 -6.729716951361876 3.8005323278024186 -6.67779425133275 3.2588841615895072 -6.448862346658883 C 3.2518037934037167 -6.4465022239302865 3.2459034865822254 -6.442962039837392 3.2388231183964358 -6.440601917108794 L 1.5926375152003303 -5.7538062030871915 L 1.5926375152003303 -5.7538062030871915 L 1.591457453836032 -5.752626141722893 L 0.8964013102643444 -5.461150984741218 L 0.8964013102643444 -5.461150984741218 L 0.8952212489000453 -5.461150984741218 L -2.7735895327033155 -3.916450658874766 L -1.8271803185360929 -3.5305705927492275 L 1.8380902789743727 -5.072910795887082 L 3.536198582199603 -5.788027982651844 Z" fill="#032f52" transform="matrix(1,0,0,1,0,0)" fill-rule="nonzero"></path></g><g clip-path="url(#SvgjsClipPath42823280198e-7cf6-4145-9131-4a50592592c9)"><path d=" M 2.4045197338375495 -4.527722445581277 C 2.323095499700967 -4.2574883931569705 2.3030344565078957 -3.9813540339111717 2.336076174708249 -3.7146601655797595 L 2.336076174708249 -3.7146601655797595 C 2.336076174708249 -3.7146601655797595 2.336076174708249 -3.7158402269440582 2.336076174708249 -3.7170202883083565 L 3.044112993287219 -4.015575813475822 L 3.044112993287219 -4.014395752111524 L 4.084927116598305 -4.453378579630486 C 4.080206871141113 -4.451018456901887 4.0754866256839195 -4.448658334173292 4.071946441591023 -4.447478272808993 L 4.095547668876988 -4.458098825087678 C 4.161631105277693 -4.486420297830836 4.233614848499889 -4.500581034202417 4.305598591722084 -4.500581034202417 C 4.374042150851383 -4.500581034202417 4.442485709980684 -4.487600359195135 4.509749207745685 -4.460458947816275 C 4.549871294131827 -4.443938088716099 4.586453196425073 -4.423877045523028 4.620674975989724 -4.3990957568727636 C 4.631295528268407 -4.392015388686975 4.641916080547093 -4.383754959136886 4.651356571461479 -4.375494529586798 C 4.6548967555543745 -4.373134406858201 4.658436939647269 -4.369594222765308 4.660797062375865 -4.36723410003671 C 4.661977123740163 -4.36723410003671 4.661977123740163 -4.366054038672411 4.663157185104462 -4.364873977308112 C 4.666697369197356 -4.361333793215218 4.670237553290252 -4.3589736704866215 4.673777737383146 -4.355433486393727 C 4.677317921476042 -4.351893302300833 4.6808581055689364 -4.348353118207937 4.684398289661831 -4.344812934115043 C 4.837806267020608 -4.1949451408491605 4.894449212506924 -3.9612929907181003 4.808304732913149 -3.752422129237304 C 4.75992221697692 -3.630875808714581 4.669057491925953 -3.536470899570719 4.561671907774809 -3.478647892720101 L 5.568264251521244 -3.9034699838674842 L 5.569444312885542 -3.9034699838674842 C 5.591865478807209 -4.422696984158728 5.290949830911147 -4.923043002621201 4.783523444262886 -5.1295537413734 C 4.66433724646876 -5.177936257309629 4.541610864581737 -5.207437791417087 4.418884482694717 -5.218058343695771 C 4.4106240531446295 -5.219238405060069 4.401183562230242 -5.219238405060069 4.3929231326801546 -5.220418466424368 C 4.384662703130066 -5.220418466424368 4.3752222122156805 -5.221598527788666 4.366961782665592 -5.221598527788666 C 4.325659634915152 -5.223958650517263 4.28553754852901 -5.223958650517263 4.245415462142869 -5.221598527788666 C 4.234794909864185 -5.221598527788666 4.2241743575855 -5.220418466424368 4.213553805306815 -5.219238405060069 C 4.202933253028131 -5.218058343695771 4.192312700749446 -5.218058343695771 4.18169214847076 -5.216878282331471 C 4.171071596192076 -5.215698220967173 4.160451043913392 -5.214518159602875 4.149830491634707 -5.213338098238578 C 4.139209939356021 -5.21215803687428 4.128589387077338 -5.210977975509981 4.117968834798652 -5.208617852781385 C 4.012943373376105 -5.193277055045508 3.911458096046453 -5.163775520938051 3.8146930641739925 -5.123653434551908 L 2.4021596111089485 -4.528902506945574 C 2.4021596111089485 -4.528902506945574 2.4021596111089485 -4.528902506945574 2.4021596111089485 -4.527722445581276 C 2.4021596111089485 -4.527722445581276 2.4021596111089485 -4.527722445581276 2.4021596111089485 -4.527722445581276 L 2.4045197338375495 -4.527722445581277 Z" fill="#7e909a" transform="matrix(1,0,0,1,0,0)" fill-rule="nonzero"></path></g><g clip-path="url(#SvgjsClipPath42823280198e-7cf6-4145-9131-4a50592592c9)"><path d=" M 3.044112993287219 -4.013215690747225 L 3.044112993287219 -4.013215690747225 C 3.044112993287219 -4.014395752111524 3.044112993287219 -4.014395752111524 3.044112993287219 -4.013215690747225 L 3.044112993287219 -4.013215690747225 Z" fill="#7e909a" transform="matrix(1,0,0,1,0,0)" fill-rule="nonzero"></path></g><g clip-path="url(#SvgjsClipPath42823280198e-7cf6-4145-9131-4a50592592c9)"><path d=" M 4.7481216033339395 -2.771791135505433 C 4.730420682869465 -2.7647107673196416 4.711539701040691 -2.758810460498151 4.693838780576217 -2.75291015367666 C 4.678497982840341 -2.7481899082194667 4.663157185104462 -2.7434696627622728 4.647816387368585 -2.7387494173050797 C 4.63129552826841 -2.7340291718478866 4.613594607803935 -2.7293089263906944 4.595893687339461 -2.725768742297798 C 4.585273135060776 -2.7234086195692004 4.57583264414639 -2.721048496840605 4.566392153232004 -2.7186883741120083 C 4.546331110038933 -2.7151481900191134 4.526270066845862 -2.7104279445619195 4.506209023652791 -2.708067821833324 C 4.284357487164715 -2.672665980904375 4.0518853983979515 -2.695087146826042 3.8300338619098753 -2.7859518718770104 C 3.608182325421798 -2.876816596927979 3.425272813955565 -3.023144206100966 3.291925879789858 -3.2036935948386027 C 3.280125266146876 -3.2202144539387785 3.2683246525038925 -3.2367353130389542 3.256524038860909 -3.253256172139131 C 3.2506237320394185 -3.2615166016892196 3.2459034865822254 -3.2697770312393066 3.240003179760734 -3.2792175221536946 C 3.2022412161031886 -3.3394006517329062 3.169199497902838 -3.4019439040407145 3.142058086523977 -3.4680273404414192 C 3.08541514103766 -3.603734397335721 3.0523734228373067 -3.74888194514441 3.0441129932872206 -3.8963896156816946 C 3.0429329319229215 -3.927071211153451 3.041752870558623 -3.9565727452609076 3.0429329319229215 -3.9872543407326626 C 3.0429329319229215 -3.9955147702827523 3.0429329319229215 -4.0049552611971375 3.0441129932872206 -4.013215690747227 C 3.0441129932872206 -4.013215690747227 3.0441129932872206 -4.013215690747227 3.0441129932872206 -4.014395752111525 L 3.0441129932872206 -4.015575813475822 L 2.336076174708251 -3.7170202883083565 C 2.336076174708251 -3.7170202883083565 2.336076174708251 -3.7158402269440582 2.336076174708251 -3.7146601655797595 L 2.336076174708251 -3.7146601655797595 L 2.336076174708251 -3.7146601655797595 C 2.4222206543020253 -3.024324267465264 2.868283850006776 -2.3977116830228766 3.5574396867569735 -2.1168570783198852 C 4.063686012040936 -1.9103463395676856 4.608874362346744 -1.9292273213964588 5.077358723973163 -2.1262975692342705 L 5.077358723973163 -2.1251175078699722 C 5.54584308559958 -2.323367817072083 5.938803519910909 -2.6986273309189377 6.145314258663108 -3.2060537175671993 C 6.170095547313371 -3.2650567857821136 6.19133665187074 -3.3240598539970287 6.209037572335216 -3.3842429835762404 C 6.209037572335216 -3.3842429835762404 6.209037572335216 -3.3854230449405387 6.209037572335216 -3.3854230449405387 L 4.7976841806344686 -2.7918521786985044 C 4.781163321534291 -2.783591749148415 4.764642462434115 -2.7776914423269234 4.7481216033339395 -2.771791135505433 Z" fill="#587284" transform="matrix(1,0,0,1,0,0)" fill-rule="nonzero"></path></g><g clip-path="url(#SvgjsClipPath42823280198e-7cf6-4145-9131-4a50592592c9)"><path d=" M 6.77428696583409 -2.8390546332704343 C 6.77428696583409 -2.8390546332704343 6.77428696583409 -2.8390546332704343 6.77428696583409 -2.8390546332704343 L 6.77428696583409 -2.8390546332704343 L 5.07735872397316 -2.1251175078699722 L 5.07735872397316 -2.1251175078699722 L 5.07735872397316 -2.1262975692342705 C 4.60887436234674 -1.9292273213964561 4.063686012040935 -1.9103463395676856 3.5574396867569718 -2.1168570783198852 C 2.868283850006775 -2.3977116830228766 2.4222206543020235 -3.024324267465264 2.336076174708249 -3.7146601655797595 L 2.336076174708249 -3.7146601655797595 C 2.3030344565078975 -3.9813540339111717 2.323095499700967 -4.2574883931569705 2.4045197338375495 -4.527722445581277 L 2.402159611108952 -4.526542384216978 L 1.6067982515719113 -4.192585018120565 C 1.605618190207612 -4.172523974927493 1.6032580674790164 -4.152462931734423 1.6020780061147182 -4.132401888541352 C 1.6020780061147182 -4.1241414589912635 1.60089794475042 -4.115881029441176 1.60089794475042 -4.107620599891088 C 1.60089794475042 -4.104080415798194 1.60089794475042 -4.099360170340999 1.5997178833861216 -4.095819986248104 C 1.5997178833861216 -4.087559556698016 1.5985378220218234 -4.079299127147929 1.5985378220218234 -4.0710386975978405 C 1.5973577606575233 -4.054517838497664 1.5973577606575233 -4.039177040761786 1.5973577606575233 -4.022656181661611 C 1.5973577606575233 -4.014395752111522 1.5973577606575233 -4.006135322561434 1.5973577606575233 -3.999054954375645 C 1.5973577606575233 -3.982534095275469 1.5973577606575233 -3.9671932975395903 1.5973577606575233 -3.9506724384394154 C 1.5973577606575233 -3.942412008889326 1.5973577606575233 -3.934151579339239 1.5973577606575233 -3.9270712111534496 C 1.5973577606575233 -3.9188107816033604 1.5973577606575233 -3.910550352053274 1.5973577606575233 -3.9034699838674842 C 1.5973577606575233 -3.895209554317395 1.5973577606575233 -3.886949124767308 1.5985378220218234 -3.8798687565815184 C 1.5985378220218234 -3.871608327031429 1.5985378220218234 -3.8633478974813427 1.5997178833861216 -3.8562675292955517 C 1.5997178833861216 -3.848007099745464 1.60089794475042 -3.839746670195377 1.60089794475042 -3.8326663020095864 C 1.6020780061147182 -3.8161454429094115 1.6020780061147182 -3.8008046451735327 1.6032580674790164 -3.7842837860733565 C 1.6032580674790164 -3.7760233565232686 1.6044381288433156 -3.7677629269731807 1.6044381288433156 -3.760682558787391 C 1.6044381288433156 -3.7571423746944967 1.6056181902076139 -3.7524221292373032 1.6056181902076139 -3.748881945144409 C 1.6067982515719121 -3.7406215155943197 1.6067982515719121 -3.7323610860442327 1.6079783129362104 -3.7252807178584435 C 1.6091583743005096 -3.705219674665372 1.6115184970291052 -3.6851586314723015 1.6138786197577017 -3.66509758827923 C 1.615058681122 -3.6568371587291413 1.6162387424862983 -3.6497567905433526 1.6162387424862983 -3.6414963609932647 C 1.6185988652148966 -3.6214353178001932 1.6209589879434922 -3.6013742746071227 1.624499172036388 -3.5824932927783504 C 1.6256792334006862 -3.5742328632282625 1.6268592947649854 -3.567152495042473 1.6280393561292819 -3.558892065492384 C 1.6280393561292819 -3.55535188139949 1.629219417493581 -3.5506316359422962 1.6303994788578793 -3.5470914518494023 C 1.6315795402221775 -3.5388310222993136 1.6327596015864758 -3.531750654113525 1.6339396629507732 -3.523490224563435 C 1.6362997856793697 -3.5081494268275595 1.6386599084079663 -3.491628567727382 1.6422000925008629 -3.4762877699915045 C 1.6433801538651611 -3.4680273404414166 1.6445602152294594 -3.460946972255628 1.646920337958055 -3.452686542705539 C 1.6481003993223533 -3.444426113155451 1.650460522050949 -3.4373457449696625 1.651640583415248 -3.429085315419573 L 1.651640583415248 -3.429085315419573 C 1.6575408902367386 -3.4019439040407136 1.6634411970582308 -3.3736224312975542 1.6693415038797221 -3.346481019918693 C 1.6705215652440204 -3.3417607744615 1.6717016266083196 -3.3358604676400097 1.672881687972616 -3.3311402221828166 C 1.672881687972616 -3.3299601608185183 1.6740617493369152 -3.3276000380899227 1.6740617493369152 -3.3264199767256244 C 1.6752418107012135 -3.3216997312684304 1.6764218720655117 -3.315799424446939 1.6776019334298091 -3.311079178989747 C 1.6882224857084935 -3.2662368471464127 1.7012031607157745 -3.2213945153030767 1.7141838357230563 -3.1765521834597426 C 1.7189040811802494 -3.1623914470881624 1.7224442652731442 -3.148230710716585 1.7271645107303373 -3.134069974345004 C 1.7283445720946364 -3.1317098516164075 1.7283445720946364 -3.129349728887812 1.7295246334589356 -3.1281696675235136 C 1.7307046948232339 -3.1234494220663196 1.7318847561875321 -3.119909237973424 1.7342448789161278 -3.1151889925162317 C 1.7448654311948113 -3.0833273356801776 1.7554859834734966 -3.0526457402084226 1.7672865971164784 -3.0207840833723694 C 1.7684666584807776 -3.0172438992794746 1.7708267812093732 -3.0125236538222797 1.7720068425736715 -3.008983469729386 C 1.7731869039379706 -3.0066233470007884 1.7743669653022698 -3.0042632242721927 1.7743669653022698 -3.001903101543596 C 1.775547026666568 -2.9983629174507023 1.7779071493951637 -2.9936426719935083 1.779087210759462 -2.9901024879006126 C 1.7802672721237602 -2.987742365172016 1.7814473334880594 -2.9853822424434204 1.7814473334880594 -2.983022119714823 C 1.7826273948523577 -2.979481935621929 1.7849875175809533 -2.974761690164735 1.7861675789452516 -2.971221506071841 C 1.7897077630381455 -2.961781015157454 1.7932479471310412 -2.9535205856073663 1.7967881312239369 -2.94408009469298 C 1.8026884380454273 -2.931099419685699 1.8074086835026204 -2.9181187446784174 1.8133089903241117 -2.90395800830684 C 1.8156691130527083 -2.898057701485347 1.8180292357813048 -2.8921573946638564 1.8203893585099022 -2.886257087842365 C 1.8215694198742005 -2.882716903749471 1.8239295426027962 -2.8791767196565745 1.8251096039670944 -2.8756365355636797 C 1.8262896653313936 -2.873276412835083 1.8274697266956919 -2.8697362287421893 1.8286497880599892 -2.867376106013592 C 1.8298298494242875 -2.863835921920698 1.8321899721528832 -2.860295737827802 1.8333700335171814 -2.8567555537349074 C 1.8357301562457788 -2.850855246913416 1.8380902789743745 -2.8449549400919247 1.841630463067271 -2.8390546332704343 C 1.8428105244315693 -2.8355144491775386 1.845170647160165 -2.831974265084643 1.8463507085244633 -2.828434080991749 C 1.8475307698887615 -2.8260739582631524 1.8487108312530607 -2.8225337741702576 1.8498908926173572 -2.820173651441661 C 1.8510709539816563 -2.816633467348767 1.853431076710252 -2.8130932832558706 1.8546111380745502 -2.810733160527274 C 1.8569712608031468 -2.8048328537057836 1.8605114448960416 -2.7989325468842923 1.862871567624639 -2.793032240062801 C 1.8699519358104286 -2.778871503691221 1.87585224263192 -2.7647107673196416 1.8829326108177096 -2.7517300923123615 C 1.8864727949106053 -2.743469662762272 1.8911930403677992 -2.736389294576484 1.8947332244606931 -2.7293089263906944 C 1.8959132858249914 -2.7257687422977996 1.898273408553587 -2.7234086195692013 1.8994534699178853 -2.7198684354763074 C 1.9006335312821845 -2.7163282513834135 1.9029936540107801 -2.713968128654817 1.9041737153750784 -2.710427944561922 C 1.9053537767393767 -2.7080678218333256 1.9077138994679732 -2.7045276377404317 1.9088939608322724 -2.7021675150118334 C 1.9100740221965706 -2.6986273309189386 1.9124341449251663 -2.696267208190342 1.9136142062894645 -2.692727024097448 C 1.9147942676537628 -2.6903669013688507 1.9171543903823585 -2.686826717275957 1.9183344517466576 -2.6844665945473603 C 1.9324951881182377 -2.657325183168499 1.9478359858541143 -2.630183771789638 1.9631767835899918 -2.603042360410778 C 1.9667169676828857 -2.5971420535892875 1.9690770904114823 -2.5924218081320944 1.972617274504377 -2.586521501310602 C 1.9761574585972719 -2.580621194489111 1.9796976426901676 -2.5735408263033213 1.9844178881473598 -2.567640519481829 C 1.9891381336045528 -2.559380089931741 1.993858379061745 -2.551119660381654 1.9997586858832381 -2.5428592308315654 C 2.0103792381619217 -2.5251583103670905 2.0221798518049052 -2.506277328538319 2.033980465447887 -2.488576408073844 C 2.037520649540781 -2.483856162616652 2.0398807722693784 -2.479135917159458 2.043420956362273 -2.474415671702264 C 2.0481412018194662 -2.4673353035164745 2.051681385912361 -2.461434996694983 2.056401631369554 -2.4543546285091926 C 2.0575816927338524 -2.451994505780596 2.0587617540981507 -2.4508144444162987 2.059941815462448 -2.4484543216877013 C 2.0658421222839403 -2.439013830773316 2.07292249046973 -2.429573339858929 2.078822797291221 -2.4201328489445437 C 2.0847231041127126 -2.411872419394454 2.090623410934205 -2.403611989844367 2.095343656391397 -2.395351560294279 C 2.0977037791199944 -2.3918113762013844 2.10006390184859 -2.389451253472787 2.1024240245771866 -2.385911069379893 C 2.1071442700343797 -2.3800107625584017 2.1118645154915736 -2.372930394372612 2.1165847609487667 -2.36703008755112 C 2.126025251863152 -2.355229473908138 2.1342856814132416 -2.3422487989008562 2.143726172327627 -2.3304481852578736 C 2.154346724606312 -2.3162874488862935 2.1649672768849957 -2.3021267125147142 2.175587829163682 -2.287965976143135 C 2.193288749628155 -2.265544810221468 2.212169731456928 -2.2419435829355026 2.2310507132857005 -2.220702478378133 C 2.23813108147149 -2.212442048828043 2.2452114496572815 -2.204181619277956 2.2522918178430693 -2.1959211897278674 C 2.2558320019359632 -2.1923810056349735 2.2581921246645607 -2.188840821542078 2.2617323087574546 -2.185300637449184 C 2.264092431486053 -2.1829405147205865 2.2664525542146485 -2.1794003306276926 2.268812676943245 -2.177040207899096 C 2.27235286103614 -2.1735000238062003 2.2758930451290347 -2.1699598397133046 2.2782531678576303 -2.1652395942561125 C 2.2829734133148234 -2.1605193487989194 2.2876936587720174 -2.154619041977429 2.2924139042292113 -2.149898796520235 C 2.2971341496864035 -2.145178551063042 2.300674333779299 -2.1404583056058497 2.3053945792364914 -2.1357380601486557 C 2.3053945792364914 -2.1357380601486557 2.3065746406007905 -2.1345579987843575 2.3065746406007905 -2.1345579987843575 C 2.3112948860579836 -2.1298377533271635 2.3160151315151767 -2.1251175078699704 2.3195553156080724 -2.1203972624127765 C 2.3242755610652646 -2.1156770169555843 2.3289958065224576 -2.109776710134093 2.3337160519796525 -2.105056464676899 C 2.3773783224586893 -2.0590340714692665 2.4234007156663218 -2.013011678261634 2.4706031702382534 -1.9693494077825964 C 2.47296329296685 -1.966989285053999 2.4753234156954456 -1.964629162325405 2.477683538424043 -1.9622690395968077 C 2.5189856861744833 -1.9245070759392622 2.561467895289222 -1.8879251736460159 2.605130165768257 -1.852523332717067 C 2.6086703498611516 -1.848983148624173 2.6133905953183447 -1.8466230258955756 2.6169307794112404 -1.8430828418026817 C 2.6558728044330824 -1.8124012463309267 2.694814829454927 -1.7828997122234682 2.734936915841068 -1.7545782394803107 C 2.746737529484051 -1.7463178099302228 2.7585381431270344 -1.738057380380134 2.770338756770016 -1.7297969508300461 C 2.778599186320106 -1.7238966440085557 2.78803967723449 -1.7179963371870643 2.79630010678458 -1.712096030365573 C 2.8045605363346677 -1.70619572354408 2.814001027249053 -1.7002954167225885 2.82344151816344 -1.6943951099010972 C 2.8293418249849305 -1.6908549258082033 2.835242131806422 -1.6861346803510093 2.841142438627914 -1.6825944962581154 C 2.8470427454494054 -1.6790543121652206 2.852943052270896 -1.675514128072324 2.858843359092387 -1.6707938826151327 C 2.8859847704712482 -1.654273023514957 2.9131261818501093 -1.6365721030504812 2.9414476545932677 -1.6212313053146028 C 2.947347961414758 -1.617691121221708 2.9544283296005496 -1.614150937128814 2.96032863642204 -1.6106107530359202 C 2.9697691273364253 -1.6047104462144288 2.979209618250813 -1.5999902007572349 2.9886501091651985 -1.595269955300041 C 2.9921902932580924 -1.5940898939357444 2.9945504159866907 -1.591729771207147 2.9980906000795855 -1.5905497098428496 C 3.013431397815461 -1.5822892802927617 3.0299522569156387 -1.5728487893783738 3.0452930546515162 -1.564588359828286 C 3.058273729658797 -1.557507991642498 3.071254404666079 -1.551607684821004 3.084235079673359 -1.5445273166352163 C 3.09721575468064 -1.5374469484494249 3.110196429687922 -1.5315466416279344 3.123177104695201 -1.525646334806443 C 3.126717288788096 -1.524466273442143 3.1302574728809924 -1.5221061507135492 3.132617595609588 -1.520926089349249 C 3.1396979637953777 -1.5173859052563552 3.145598270616868 -1.5150257825277578 3.1526786388026595 -1.5114855984348639 C 3.1562188228955534 -1.5103055370705638 3.159759006988449 -1.50794541434197 3.162119129717045 -1.50676535297767 C 3.1691994979028344 -1.503225168884776 3.1750998047243266 -1.5008650461561786 3.1821801729101162 -1.4973248620632846 C 3.2057814001960816 -1.4867043097846002 3.229382627482047 -1.4760837575059176 3.2529838547680123 -1.4666432665915297 C 3.2600642229538037 -1.4642831438629331 3.2671445911395933 -1.4607429597700383 3.2730448979610838 -1.4583828370414418 C 3.2765850820539777 -1.4572027756771444 3.2801252661468734 -1.4560227143128444 3.283665450239769 -1.4536625915842478 C 3.304906554797138 -1.44540216203416 3.3261476593545076 -1.4371417324840738 3.3462087025475764 -1.4288813029339833 C 3.366269745740648 -1.4218009347481955 3.3851507275694193 -1.414720566562405 3.4052117707624907 -1.4076401983766162 C 3.414652261676876 -1.4041000142837223 3.425272813955562 -1.4005598301908257 3.4347133048699474 -1.397019646097931 C 3.9444998142468064 -1.2235506255460828 4.473167305452437 -1.2105699505388037 4.964072833000523 -1.3344763937901236 C 4.978233569372103 -1.3380165778830184 4.992394305743682 -1.3415567619759123 5.006555042115261 -1.345096946068809 C 5.006555042115261 -1.345096946068809 5.006555042115261 -1.345096946068809 5.006555042115261 -1.345096946068809 C 5.038416698951315 -1.3533573756188968 5.071458417151667 -1.362797866533282 5.103320073987721 -1.3734184188119674 C 5.103320073987721 -1.3734184188119674 5.103320073987721 -1.3734184188119674 5.103320073987721 -1.3734184188119674 C 5.12456117854509 -1.3804987869977552 5.1458022831024595 -1.3875791551835466 5.167043387659828 -1.3946595233693344 C 5.188284492217197 -1.401739891555125 5.209525596774567 -1.4088202597409136 5.230766701331936 -1.4170806892910015 C 5.2390271308820235 -1.419440812019598 5.246107499067811 -1.4229809961124928 5.254367928617901 -1.4253411188410894 C 5.260268235439392 -1.4277012415696868 5.266168542260884 -1.4300613642982833 5.270888787718077 -1.4324214870268808 C 5.280329278632463 -1.4359616711197747 5.288589708182551 -1.4395018552126713 5.298030199096937 -1.4430420393055652 C 5.307470690011321 -1.446582223398459 5.315731119561411 -1.450122407491354 5.325171610475797 -1.4536625915842478 C 5.33579216275448 -1.4583828370414418 5.346412715033166 -1.4619230211343384 5.355853205947552 -1.4666432665915297 L 7.020919790972428 -2.167599716984709 L 7.717155995908417 -2.460254935330682 L 11.38714683887608 -3.996694831647049 L 10.440737624708856 -4.382574897772588 L 10.438377501980257 -4.381394836408289 L 10.438377501980257 -4.381394836408289 L 10.439557563344554 -4.381394836408289 L 6.77428696583409 -2.8390546332704343 Z" fill="#32546d" transform="matrix(1,0,0,1,0,0)" fill-rule="nonzero"></path></g><g clip-path="url(#SvgjsClipPath42823280198e-7cf6-4145-9131-4a50592592c9)"><path d=" M 4.5616719077748105 -3.4774678313558045 C 4.5616719077748105 -3.4774678313558045 4.5616719077748105 -3.4774678313558045 4.5616719077748105 -3.4774678313558045 C 4.559311785046213 -3.4762877699915053 4.556951662317617 -3.475107708627207 4.554591539589021 -3.4739276472629097 C 4.542790925946039 -3.4680273404414192 4.529810250938756 -3.462127033619928 4.5168295759314745 -3.4562267267984366 C 4.5168295759314745 -3.4562267267984366 4.5168295759314745 -3.4562267267984366 4.5168295759314745 -3.4562267267984366 C 4.3893829485872615 -3.4031239654050136 4.240695216685678 -3.3972236585835223 4.102628037062778 -3.4538666040698383 C 3.886676807396193 -3.54237120639221 3.7580501186876782 -3.753602190601603 3.765130486873468 -3.971913542996785 C 3.765130486873468 -3.9754537270896795 3.765130486873468 -3.9789939111825747 3.765130486873468 -3.982534095275469 C 3.767490609602066 -4.042717224854682 3.7804712846093453 -4.104080415798192 3.80525257325961 -4.1630834840131055 C 3.8335740460027683 -4.231527043142405 3.8748761937532077 -4.292890234085917 3.9244387710537376 -4.342452811386445 C 3.9681010415327744 -4.3849350205011834 4.017663618833301 -4.420336861430132 4.071946441591022 -4.446298211444693 C 4.076666687048214 -4.44865833417329 4.081386932505408 -4.4510184569018865 4.084927116598304 -4.452198518266185 L 3.044112993287219 -4.014395752111524 L 3.044112993287219 -4.013215690747225 C 3.044112993287219 -4.004955261197136 3.0429329319229206 -3.995514770282751 3.0429329319229206 -3.9872543407326617 C 3.0429329319229206 -3.9565727452609063 3.0429329319229206 -3.9258911497891513 3.044112993287219 -3.8963896156816933 C 3.0511933614730085 -3.7477018837801106 3.084235079673361 -3.60373439733572 3.142058086523975 -3.4680273404414175 C 3.1691994979028353 -3.4019439040407136 3.2022412161031886 -3.3394006517329045 3.240003179760733 -3.279217522153692 C 3.2459034865822245 -3.2697770312393066 3.2506237320394167 -3.2615166016892188 3.256524038860908 -3.253256172139129 C 3.2683246525038916 -3.2367353130389542 3.2801252661468734 -3.2202144539387785 3.291925879789857 -3.203693594838601 C 3.425272813955562 -3.023144206100965 3.6081823254217955 -2.876816596927976 3.8300338619098735 -2.7859518718770095 C 4.051885398397951 -2.695087146826041 4.284357487164713 -2.672665980904374 4.50620902365279 -2.708067821833323 C 4.5262700668458615 -2.7104279445619195 4.546331110038931 -2.7151481900191126 4.566392153232003 -2.7186883741120065 C 4.575832644146388 -2.721048496840604 4.585273135060775 -2.7234086195691996 4.595893687339459 -2.725768742297796 C 4.613594607803934 -2.729308926390692 4.631295528268407 -2.7340291718478857 4.647816387368583 -2.738749417305078 C 4.663157185104461 -2.743469662762271 4.67849798284034 -2.748189908219463 4.693838780576216 -2.752910153676658 C 4.7115397010406905 -2.7588104604981494 4.730420682869464 -2.7647107673196407 4.748121603333938 -2.771791135505431 C 4.764642462434113 -2.7776914423269226 4.781163321534288 -2.783591749148414 4.797684180634466 -2.7906721173342035 L 6.2090375723352125 -3.3842429835762387 L 6.210217633699511 -3.3842429835762387 C 6.291641867836093 -3.6544770360005456 6.311702911029164 -3.930611395246344 6.277481131464514 -4.1996653863063536 L 6.277481131464514 -4.1996653863063536 L 6.277481131464514 -4.1996653863063536 L 5.569444312885544 -3.9011098611388886 L 5.568264251521246 -3.9011098611388886 L 4.5616719077748105 -3.4774678313558045 Z" fill="#caccc7" transform="matrix(1,0,0,1,0,0)" fill-rule="nonzero"></path></g><g clip-path="url(#SvgjsClipPath42823280198e-7cf6-4145-9131-4a50592592c9)"><path d=" M 4.0967277302412874 -4.455738702359081 C 3.9692811028970745 -4.4026359409656575 3.860715457381631 -4.29879054090741 3.8052525732596107 -4.16072336128451 C 3.7816513459736454 -4.102900354433896 3.7686706709663644 -4.042717224854682 3.7651304868734696 -3.982534095275469 C 3.7651304868734696 -3.9789939111825747 3.7651304868734696 -3.9754537270896795 3.7651304868734696 -3.971913542996785 C 3.7592301800519783 -3.752422129237304 3.886676807396193 -3.541191145027911 4.10262803706278 -3.4538666040698383 C 4.240695216685679 -3.3972236585835223 4.3893829485872615 -3.4031239654050136 4.516829575931476 -3.4562267267984366 C 4.516829575931476 -3.4562267267984366 4.516829575931476 -3.4562267267984366 4.516829575931476 -3.4562267267984366 C 4.529810250938758 -3.462127033619928 4.541610864581742 -3.46684727907712 4.554591539589022 -3.4739276472629097 C 4.556951662317619 -3.475107708627209 4.559311785046215 -3.476287769991507 4.561671907774811 -3.4774678313558045 C 4.561671907774811 -3.4774678313558045 4.561671907774811 -3.4774678313558045 4.561671907774811 -3.4774678313558045 C 4.6690574919259555 -3.5341107768421214 4.759922216976923 -3.629695747350283 4.808304732913154 -3.751242067873007 C 4.8944492125069265 -3.9612929907181003 4.837806267020611 -4.194945140849162 4.684398289661833 -4.343632872750746 C 4.680858105568939 -4.347173056843641 4.677317921476043 -4.350713240936535 4.6737777373831495 -4.354253425029429 C 4.670237553290254 -4.357793609122323 4.666697369197359 -4.360153731850921 4.663157185104465 -4.363693915943815 C 4.661977123740166 -4.364873977308115 4.661977123740166 -4.364873977308115 4.660797062375868 -4.366054038672413 C 4.657256878282974 -4.3684141614010095 4.654896755554376 -4.371954345493904 4.651356571461482 -4.374314468222501 C 4.641916080547096 -4.382574897772589 4.631295528268411 -4.390835327322677 4.6206749759897265 -4.397915695508466 C 4.587633257789375 -4.4215169227944315 4.551051355496128 -4.441577965987504 4.510929269109987 -4.45809882508768 C 4.372862089487086 -4.514741770573995 4.224174357585501 -4.508841463752503 4.0967277302412874 -4.455738702359081 Z" fill="#f0eadd" transform="matrix(1,0,0,1,0,0)" fill-rule="nonzero"></path></g><g clip-path="url(#SvgjsClipPath42823280198e-7cf6-4145-9131-4a50592592c9)"><path d=" M 6.7990682544843555 -2.8933374560281546 C 6.790807824934268 -2.8756365355636797 6.78254739538418 -2.8567555537349074 6.775467027198388 -2.8402346946347325 C 6.775467027198388 -2.8402346946347325 6.775467027198388 -2.8402346946347325 6.775467027198388 -2.8390546332704343 L 10.43955756334456 -4.381394836408289 L 10.438377501980263 -4.381394836408289 L 9.493148349177337 -4.7672749025338295 L 7.0067590546008525 -3.720560472401251 C 6.983157827314885 -3.4562267267984366 6.920614575007079 -3.191892981195622 6.815589113584531 -2.9334595424142966 C 6.80968880676304 -2.9204788674070157 6.804968561305845 -2.9063181310354365 6.7990682544843555 -2.8933374560281546 Z" fill="#587284" transform="matrix(1,0,0,1,0,0)" fill-rule="nonzero"></path></g><g clip-path="url(#SvgjsClipPath42823280198e-7cf6-4145-9131-4a50592592c9)"><path d=" M 6.964276845486115 -4.486420297830836 C 7.0114793000580455 -4.246867840878285 7.02918022052252 -3.997874893011348 7.009119177329449 -3.74888194514441 C 7.007939115965149 -3.7394414542300236 7.007939115965149 -3.730000963315637 7.0067590546008525 -3.7217405337655505 L 7.0067590546008525 -3.7217405337655505 L 9.494328410541632 -4.768454963898128 L 8.547919196374409 -5.154335030023666 L 8.546739135010112 -5.153154968659368 L 8.547919196374409 -5.153154968659368 L 6.964276845486115 -4.486420297830836 Z" fill="#caccc7" transform="matrix(1,0,0,1,0,0)" fill-rule="nonzero"></path></g><g clip-path="url(#SvgjsClipPath42823280198e-7cf6-4145-9131-4a50592592c9)"><path d=" M 6.618518865746717 -5.371466321054548 C 6.618518865746717 -5.371466321054548 6.618518865746717 -5.371466321054548 6.618518865746717 -5.371466321054548 C 6.620878988475313 -5.369106198325952 6.622059049839612 -5.365566014233058 6.62323911120391 -5.36320589150446 C 6.62323911120391 -5.36320589150446 6.62323911120391 -5.36320589150446 6.62323911120391 -5.36320589150446 C 6.62441917256821 -5.360845768775862 6.626779295296805 -5.357305584682969 6.627959356661103 -5.3549454619543715 C 6.627959356661103 -5.3549454619543715 6.627959356661103 -5.3549454619543715 6.627959356661103 -5.3549454619543715 C 6.629139418025401 -5.352585339225774 6.631499540753998 -5.34904515513288 6.632679602118296 -5.346685032404283 C 6.632679602118296 -5.346685032404283 6.632679602118296 -5.3455049710399845 6.633859663482594 -5.3455049710399845 C 6.635039724846893 -5.343144848311388 6.636219786211191 -5.340784725582792 6.638579908939787 -5.338424602854194 C 6.638579908939787 -5.337244541489896 6.639759970304086 -5.337244541489896 6.639759970304086 -5.3360644801255965 C 6.640940031668384 -5.333704357397 6.642120093032682 -5.331344234668404 6.6433001543969805 -5.328984111939808 C 6.6433001543969805 -5.327804050575509 6.644480215761279 -5.327804050575509 6.644480215761279 -5.32662398921121 C 6.645660277125577 -5.324263866482614 6.646840338489877 -5.321903743754018 6.648020399854174 -5.320723682389719 C 6.648020399854174 -5.31954362102542 6.649200461218472 -5.318363559661121 6.649200461218472 -5.318363559661121 C 6.65038052258277 -5.316003436932524 6.651560583947068 -5.314823375568228 6.652740645311367 -5.31246325283963 C 6.652740645311367 -5.311283191475332 6.653920706675665 -5.310103130111033 6.653920706675665 -5.310103130111033 C 6.655100768039963 -5.307743007382436 6.6562808294042615 -5.30656294601814 6.657460890768558 -5.304202823289542 C 6.658640952132858 -5.303022761925243 6.658640952132858 -5.301842700560945 6.659821013497156 -5.3006626391966485 C 6.6610010748614545 -5.29948257783235 6.662181136225753 -5.297122455103753 6.663361197590049 -5.295942393739454 C 6.664541258954348 -5.294762332375155 6.664541258954348 -5.293582271010857 6.665721320318648 -5.292402209646561 C 6.666901381682946 -5.2912221482822615 6.668081443047244 -5.288862025553666 6.668081443047244 -5.2876819641893675 C 6.669261504411544 -5.286501902825069 6.669261504411544 -5.285321841460771 6.6704415657758425 -5.284141780096473 C 6.671621627140141 -5.2829617187321745 6.671621627140141 -5.28060159600358 6.672801688504439 -5.279421534639281 C 6.673981749868737 -5.278241473274982 6.673981749868737 -5.275881350546387 6.6751618112330355 -5.274701289182088 C 6.676341872597334 -5.273521227817788 6.676341872597334 -5.27234116645349 6.677521933961632 -5.269981043724894 C 6.67870199532593 -5.268800982360595 6.67870199532593 -5.2664408596320005 6.67988205669023 -5.265260798267702 C 6.681062118054529 -5.264080736903403 6.681062118054529 -5.262900675539105 6.682242179418827 -5.261720614174807 C 6.683422240783125 -5.260540552810509 6.6846023021474235 -5.2581804300819135 6.6846023021474235 -5.257000368717614 C 6.6857823635117235 -5.255820307353316 6.6857823635117235 -5.254640245989018 6.686962424876022 -5.253460184624721 C 6.68814248624032 -5.252280123260422 6.689322547604618 -5.2499200005318265 6.689322547604618 -5.2487399391675265 C 6.690502608968917 -5.247559877803228 6.690502608968917 -5.24637981643893 6.691682670333215 -5.2451997550746325 C 6.692862731697515 -5.242839632346036 6.694042793061813 -5.241659570981739 6.694042793061813 -5.239299448253142 C 6.694042793061813 -5.238119386888844 6.695222854426111 -5.236939325524545 6.695222854426111 -5.235759264160247 C 6.69640291579041 -5.233399141431651 6.697582977154708 -5.232219080067353 6.6987630385190045 -5.229858957338756 C 6.6987630385190045 -5.228678895974458 6.699943099883303 -5.227498834610159 6.699943099883303 -5.227498834610159 C 6.701123161247603 -5.225138711881561 6.702303222611901 -5.2227785891529654 6.7034832839761975 -5.221598527788667 C 6.7034832839761975 -5.220418466424369 6.704663345340496 -5.220418466424369 6.704663345340496 -5.21923840506007 C 6.705843406704796 -5.216878282331473 6.707023468069094 -5.214518159602878 6.708203529433392 -5.21215803687428 C 6.708203529433392 -5.210977975509982 6.709383590797691 -5.210977975509982 6.709383590797691 -5.209797914145684 C 6.710563652161989 -5.207437791417087 6.711743713526287 -5.2050776686884905 6.712923774890584 -5.202717545959893 C 6.712923774890584 -5.201537484595594 6.714103836254882 -5.201537484595594 6.714103836254882 -5.200357423231296 C 6.715283897619182 -5.197997300502699 6.71646395898348 -5.1956371777741035 6.717644020347777 -5.193277055045506 C 6.717644020347777 -5.193277055045506 6.717644020347777 -5.193277055045506 6.717644020347777 -5.192096993681208 C 6.718824081712075 -5.189736870952611 6.720004143076373 -5.1861966868597165 6.72236426580497 -5.183836564131118 C 6.72236426580497 -5.183836564131118 6.72236426580497 -5.183836564131118 6.72236426580497 -5.183836564131118 C 6.723544327169268 -5.181476441402522 6.724724388533566 -5.177936257309628 6.727084511262163 -5.17557613458103 C 6.727084511262163 -5.17557613458103 6.727084511262163 -5.17557613458103 6.727084511262163 -5.17557613458103 C 6.834470095413307 -4.961985027643041 6.913534206821289 -4.733053122969174 6.96073666139322 -4.498220911473816 C 6.96073666139322 -4.495860788745219 6.96191672275752 -4.493500666016624 6.96191672275752 -4.491140543288027 L 6.96191672275752 -4.491140543288027 L 6.96191672275752 -4.491140543288027 L 8.545559073645817 -5.157875214116556 L 8.54437901228152 -5.157875214116556 L 7.698275014079652 -5.503633193855953 L 6.999678686415066 -5.7880279826518395 L 5.327531733204399 -6.470103451216246 C 5.334612101390189 -6.467743328487648 5.341692469575978 -6.464203144394754 5.3475927763974695 -6.461843021666158 C 5.897501372160466 -6.229370932899402 6.330583892857936 -5.841130744045266 6.618518865746717 -5.371466321054548 Z" fill="#f0eadd" transform="matrix(1,0,0,1,0,0)" fill-rule="nonzero"></path></g></g><g><path d=" M 0.02607549373095918 0.56101819845397 Q 0.018963995440697587 0.56101819845397 0.014222996580523188 0.5558821163554478 Q 0.009481997720348793 0.5507460342569255 0.009481997720348793 0.5444247024433597 Q 0.009481997720348793 0.540473870059881 0.010272164197044525 0.537313204153098 L 0.19833178565062892 0.029236159637741954 Q 0.2007022850807161 0.02054432839408893 0.2078137833709777 0.014222996580523062 Q 0.2149252816612393 0.007901664766957195 0.22756794528837102 0.007901664766957195 L 0.3287092543054248 0.007901664766957195 Q 0.34135191793255654 0.007901664766957195 0.3484634162228181 0.014222996580523062 Q 0.3555749145130797 0.02054432839408893 0.3579454139431669 0.029236159637741954 L 0.5460050353967513 0.537313204153098 Q 0.546795201873447 0.540473870059881 0.546795201873447 0.5444247024433597 Q 0.546795201873447 0.5507460342569255 0.5420542030132727 0.5558821163554478 Q 0.5373132041530982 0.56101819845397 0.5302017058628367 0.56101819845397 L 0.44802439228648044 0.56101819845397 Q 0.4361718951360445 0.56101819845397 0.43064072979917434 0.5554870331170999 Q 0.4251095644623042 0.5499558677802298 0.42352923150891275 0.5452148689200554 L 0.3895520730109962 0.4567162235301333 L 0.16672512658279962 0.4567162235301333 L 0.1327479680848831 0.5452148689200554 Q 0.13116763513149163 0.5499558677802298 0.1256364697946215 0.5554870331170999 Q 0.12010530445775137 0.56101819845397 0.10825280730731539 0.56101819845397 L 0.02607549373095918 0.56101819845397 M 0.1959612862205417 0.3547847480363838 L 0.35952574689655836 0.3547847480363838 L 0.2781385997968979 0.12721680274801278 L 0.1959612862205417 0.3547847480363838 M 0.6344874762007255 0.56101819845397 Q 0.6257956449570725 0.56101819845397 0.6202644796202024 0.5554870331170999 Q 0.6147333142833322 0.5499558677802298 0.6147333142833322 0.5412640365365767 L 0.6147333142833322 0.027655826684350515 Q 0.6147333142833322 0.01896399544069738 0.6202644796202024 0.013432830103827231 Q 0.6257956449570725 0.007901664766957195 0.6344874762007255 0.007901664766957195 L 0.7237762880673433 0.007901664766957195 Q 0.7324681193109963 0.007901664766957195 0.7379992846478665 0.013432830103827231 Q 0.7435304499847366 0.01896399544069738 0.7435304499847366 0.027655826684350515 L 0.7435304499847366 0.5412640365365767 Q 0.7435304499847366 0.5499558677802298 0.7379992846478665 0.5554870331170999 Q 0.7324681193109963 0.56101819845397 0.7237762880673433 0.56101819845397 L 0.6344874762007255 0.56101819845397 M 1.0548421521577571 0.56101819845397 Q 1.046150320914104 0.56101819845397 1.040619155577234 0.5554870331170999 Q 1.0350879902403638 0.5499558677802298 1.0350879902403638 0.5412640365365767 L 1.0350879902403638 0.027655826684350515 Q 1.0350879902403638 0.01896399544069738 1.040619155577234 0.013432830103827231 Q 1.046150320914104 0.007901664766957195 1.0548421521577571 0.007901664766957195 L 1.2642362684821264 0.007901664766957195 Q 1.363007078069093 0.007901664766957195 1.4198990643911857 0.05333623717696179 Q 1.4767910507132784 0.09877080958696643 1.4767910507132784 0.18410878907010553 Q 1.4767910507132784 0.24179094186889405 1.449135224028928 0.2805090992269849 Q 1.4214793973445772 0.31922725658507584 1.374859575219529 0.33819125202577344 L 1.4862730484336273 0.5357328711997066 Q 1.4886435478637146 0.540473870059881 1.4886435478637146 0.5444247024433597 Q 1.4886435478637146 0.5507460342569255 1.48390254900354 0.5558821163554478 Q 1.4791615501433657 0.56101819845397 1.4720500518531041 0.56101819845397 L 1.3843415729398778 0.56101819845397 Q 1.3701185763593546 0.56101819845397 1.363007078069093 0.5535116169253606 Q 1.3558955797788315 0.5460050353967512 1.3527349138720484 0.5396837035831853 L 1.256334603715169 0.3587355804198625 L 1.1607244600349853 0.3587355804198625 L 1.1607244600349853 0.5412640365365767 Q 1.1607244600349853 0.5499558677802298 1.1551932946981154 0.5554870331170999 Q 1.149662129361245 0.56101819845397 1.140970298117592 0.56101819845397 L 1.0548421521577571 0.56101819845397 M 1.1607244600349853 0.25838443787950444 L 1.2618657690520392 0.25838443787950444 Q 1.3053249252703045 0.25838443787950444 1.3262643369027414 0.23863027596211112 Q 1.3472037485351782 0.2188761140447178 1.3472037485351782 0.1833186225934098 Q 1.3472037485351782 0.14776113114210182 1.3266594201410893 0.12721680274801278 Q 1.3061150917470001 0.10667247435392374 1.2618657690520392 0.10667247435392374 L 1.1607244600349853 0.10667247435392374 L 1.1607244600349853 0.25838443787950444 M 1.593741090792896 0.56101819845397 Q 1.585049259549243 0.56101819845397 1.5795180942123728 0.5554870331170999 Q 1.5739869288755026 0.5499558677802298 1.5739869288755026 0.5412640365365767 L 1.5739869288755026 0.027655826684350515 Q 1.5739869288755026 0.01896399544069738 1.5795180942123728 0.013432830103827231 Q 1.585049259549243 0.007901664766957195 1.593741090792896 0.007901664766957195 L 1.951686504736063 0.007901664766957195 Q 1.960378335979716 0.007901664766957195 1.9659095013165861 0.013432830103827231 Q 1.9714406666534563 0.01896399544069738 1.9714406666534563 0.027655826684350515 L 1.9714406666534563 0.09086914482000907 Q 1.9714406666534563 0.09877080958696643 1.9659095013165861 0.10430197492383653 Q 1.960378335979716 0.10983314026070667 1.951686504736063 0.10983314026070667 L 1.6956725662866456 0.10983314026070667 L 1.6956725662866456 0.2338892771019367 L 1.9343028422487567 0.2338892771019367 Q 1.94299467349241 0.2338892771019367 1.94852583882928 0.23942044243880684 Q 1.9540570041661502 0.24495160777567698 1.9540570041661502 0.25364343901933 L 1.9540570041661502 0.31211575829481425 Q 1.9540570041661502 0.3200174230617716 1.94852583882928 0.3255485883986417 Q 1.94299467349241 0.3310797537355118 1.9343028422487567 0.3310797537355118 L 1.6956725662866456 0.3310797537355118 L 1.6956725662866456 0.4590867229602205 L 1.9580078365496287 0.4590867229602205 Q 1.9666996677932818 0.4590867229602205 1.9722308331301521 0.46461788829709066 Q 1.977761998467022 0.47014905363396076 1.977761998467022 0.47884088487761384 L 1.977761998467022 0.5412640365365767 Q 1.977761998467022 0.5499558677802298 1.9722308331301521 0.5554870331170999 Q 1.9666996677932818 0.56101819845397 1.9580078365496287 0.56101819845397 L 1.593741090792896 0.56101819845397 M 2.2709176195558882 0.5689198632209274 Q 2.195061637793098 0.5689198632209274 2.1440959000462234 0.5467952018734469 Q 2.0931301622993486 0.5246705405259664 2.0670546685683893 0.48911304907465836 Q 2.04097917483743 0.4535555576233504 2.0393988418840387 0.41325706731186806 Q 2.0393988418840387 0.4069357354983022 2.044139840744213 0.4017996533997799 Q 2.0488808396043874 0.3966635713012576 2.055992337894649 0.3966635713012576 L 2.1405401509010926 0.3966635713012576 Q 2.150812315098137 0.3966635713012576 2.156343480435007 0.40100948692308414 Q 2.1618746457718774 0.4053554025449107 2.1666156446320515 0.41167673435847657 Q 2.172146809968922 0.425109564462304 2.1843943903577054 0.43775222808943576 Q 2.1966419707464895 0.4503948917165675 2.2179764656172742 0.45869163972187266 Q 2.239310960488059 0.4669883877271779 2.2709176195558882 0.4669883877271779 Q 2.322278440541111 0.4669883877271779 2.3479588510337224 0.4503948917165675 Q 2.3736392615263338 0.4338013957059571 2.3736392615263338 0.4053554025449107 Q 2.3736392615263338 0.38481107415082166 2.359811348184158 0.37216841052368993 Q 2.345983434841983 0.3595257468965582 2.316352191965893 0.3492535826995137 Q 2.286720949089803 0.33898141850246916 2.2377306275346673 0.3271289213520332 Q 2.1784681417824876 0.31448625772490146 2.136984401755962 0.2943370125691603 Q 2.0955006617294356 0.2741877674134191 2.0745612500969988 0.2421860251072419 Q 2.053621838464562 0.21018428280106471 2.053621838464562 0.16277429419932077 Q 2.053621838464562 0.11536430559757682 2.079697332195521 0.07862156443122525 Q 2.10577282592648 0.04187882326487369 2.153182814528224 0.020939411632436733 Q 2.200592803129968 -2.220446049250313e-16 2.266176620695714 -2.220446049250313e-16 Q 2.319117774634328 -2.220446049250313e-16 2.359811348184158 0.014222996580523062 Q 2.4005049217339884 0.028445993161046235 2.427765665179991 0.05136082098522243 Q 2.455026408625994 0.07427564880939869 2.4692494052065173 0.10035114254035787 Q 2.4834724017870404 0.12642663627131706 2.4842625682637363 0.15092179704888475 Q 2.4842625682637363 0.15724312886245062 2.4795215694035617 0.1623792109609729 Q 2.474780570543387 0.16751529305949514 2.4676690722531256 0.16751529305949514 L 2.3791704268632037 0.16751529305949514 Q 2.3712687620962463 0.16751529305949514 2.3649474302826805 0.1643546271527122 Q 2.3586260984691148 0.16119396124592927 2.354675266085636 0.15329229647897197 Q 2.3499342672254615 0.13274796808488293 2.3266243561629376 0.11733972178931612 Q 2.3033144451004133 0.10193147549374937 2.266176620695714 0.10193147549374937 Q 2.227458463337623 0.10193147549374937 2.204938718751795 0.11615447207427254 Q 2.1824189741659663 0.13037746865479571 2.1824189741659663 0.15961362829253783 Q 2.1824189741659663 0.17857762373323544 2.1938763880780545 0.19161537059871503 Q 2.2053338019901423 0.20465311746419462 2.2325945454361453 0.21453019842289128 Q 2.259855288882148 0.2244072793815879 2.304894778053805 0.2362597765320239 Q 2.374429428003029 0.2504827731125471 2.4178885842212945 0.2702369350299404 Q 2.46134774043956 0.2899910969473337 2.4818920688336488 0.32120267277681513 Q 2.502436397227738 0.3524142486062966 2.502436397227738 0.3998242372080406 Q 2.502436397227738 0.45276539114665465 2.472805154351648 0.49069338202804985 Q 2.443173911475558 0.528621372909445 2.3914180072519877 0.5487706180651862 Q 2.339662103028417 0.5689198632209274 2.2709176195558882 0.5689198632209274 M 2.8129540746893134 0.5689198632209274 Q 2.7434194247400887 0.5689198632209274 2.6912684372781706 0.5456099521584032 Q 2.639117449816252 0.5223000410958791 2.6106714566552056 0.4737048027790916 Q 2.5822254634941593 0.425109564462304 2.5822254634941593 0.3500437491762094 L 2.5822254634941593 0.027655826684350515 Q 2.5822254634941593 0.01896399544069738 2.587756628831029 0.013432830103827231 Q 2.5932877941678996 0.007901664766957195 2.601979625411553 0.007901664766957195 L 2.6881077713713877 0.007901664766957195 Q 2.6967996026150405 0.007901664766957195 2.702330767951911 0.013432830103827231 Q 2.7078619332887808 0.01896399544069738 2.7078619332887808 0.027655826684350515 L 2.7078619332887808 0.3492535826995137 Q 2.7078619332887808 0.4077259019749979 2.7355177599731313 0.43617189513604426 Q 2.7631735866574823 0.46461788829709066 2.8129540746893134 0.46461788829709066 Q 2.8619443962444486 0.46461788829709066 2.889600222928799 0.43617189513604426 Q 2.91725604961315 0.4077259019749979 2.91725604961315 0.3492535826995137 L 2.91725604961315 0.027655826684350515 Q 2.91725604961315 0.01896399544069738 2.923182298188368 0.013432830103827231 Q 2.929108546763586 0.007901664766957195 2.937010211530543 0.007901664766957195 L 3.023928523967074 0.007901664766957195 Q 3.0318301887340313 0.007901664766957195 3.0373613540709012 0.013432830103827231 Q 3.0428925194077716 0.01896399544069738 3.0428925194077716 0.027655826684350515 L 3.0428925194077716 0.3500437491762094 Q 3.0428925194077716 0.425109564462304 3.0144465262467253 0.4737048027790916 Q 2.9860005330856785 0.5223000410958791 2.934639712100456 0.5456099521584032 Q 2.8832788911152334 0.5689198632209274 2.8129540746893134 0.5689198632209274 M 3.1748456911342595 0.56101819845397 Q 3.166944026367302 0.56101819845397 3.1610177777920843 0.5554870331170999 Q 3.1550915292168664 0.5499558677802298 3.1550915292168664 0.5412640365365767 L 3.1550915292168664 0.027655826684350515 Q 3.1550915292168664 0.01896399544069738 3.1610177777920843 0.013432830103827231 Q 3.166944026367302 0.007901664766957195 3.1748456911342595 0.007901664766957195 L 3.248331173466963 0.007901664766957195 Q 3.2601836706173986 0.007901664766957195 3.266109919192617 0.014222996580523062 Q 3.2720361677678347 0.02054432839408893 3.2744066671979217 0.023704994300871807 L 3.419797298909937 0.2915714299007252 L 3.566768263575343 0.023704994300871807 Q 3.5683485965287343 0.02054432839408893 3.5742748451039525 0.014222996580523062 Q 3.5802010936791704 0.007901664766957195 3.5920535908296065 0.007901664766957195 L 3.66553907316231 0.007901664766957195 Q 3.6742309044059627 0.007901664766957195 3.679762069742833 0.013432830103827231 Q 3.685293235079703 0.01896399544069738 3.685293235079703 0.027655826684350515 L 3.685293235079703 0.5412640365365767 Q 3.685293235079703 0.5499558677802298 3.679762069742833 0.5554870331170999 Q 3.6742309044059627 0.56101819845397 3.66553907316231 0.56101819845397 L 3.584942092539345 0.56101819845397 Q 3.5770404277723875 0.56101819845397 3.5715092624355176 0.5554870331170999 Q 3.565978097098647 0.5499558677802298 3.565978097098647 0.5412640365365767 L 3.565978097098647 0.22203677995150073 L 3.465626954558289 0.4100964014050851 Q 3.4616761221748105 0.41720789969534666 3.4553547903612447 0.4227390650322168 Q 3.449033458547679 0.42827023036908696 3.4387612943506345 0.42827023036908696 L 3.401623469945935 0.42827023036908696 Q 3.3913513057488904 0.42827023036908696 3.3850299739353247 0.4227390650322168 Q 3.3787086421217585 0.41720789969534666 3.3747578097382798 0.4100964014050851 L 3.2744066671979217 0.22203677995150073 L 3.2744066671979217 0.5412640365365767 Q 3.2744066671979217 0.5499558677802298 3.268875501861052 0.5554870331170999 Q 3.263344336524182 0.56101819845397 3.2554426717572245 0.56101819845397 L 3.1748456911342595 0.56101819845397 M 3.821968114492618 0.56101819845397 Q 3.8132762832489653 0.56101819845397 3.807745117912095 0.5554870331170999 Q 3.802213952575225 0.5499558677802298 3.802213952575225 0.5412640365365767 L 3.802213952575225 0.027655826684350515 Q 3.802213952575225 0.01896399544069738 3.807745117912095 0.013432830103827231 Q 3.8132762832489653 0.007901664766957195 3.821968114492618 0.007901664766957195 L 4.179913528435785 0.007901664766957195 Q 4.188605359679438 0.007901664766957195 4.194136525016308 0.013432830103827231 Q 4.199667690353178 0.01896399544069738 4.199667690353178 0.027655826684350515 L 4.199667690353178 0.09086914482000907 Q 4.199667690353178 0.09877080958696643 4.194136525016308 0.10430197492383653 Q 4.188605359679438 0.10983314026070667 4.179913528435785 0.10983314026070667 L 3.923899589986368 0.10983314026070667 L 3.923899589986368 0.2338892771019367 L 4.162529865948479 0.2338892771019367 Q 4.171221697192132 0.2338892771019367 4.1767528625290025 0.23942044243880684 Q 4.182284027865872 0.24495160777567698 4.182284027865872 0.25364343901933 L 4.182284027865872 0.31211575829481425 Q 4.182284027865872 0.3200174230617716 4.1767528625290025 0.3255485883986417 Q 4.171221697192132 0.3310797537355118 4.162529865948479 0.3310797537355118 L 3.923899589986368 0.3310797537355118 L 3.923899589986368 0.4590867229602205 L 4.186234860249351 0.4590867229602205 Q 4.194926691493004 0.4590867229602205 4.200457856829874 0.46461788829709066 Q 4.205989022166745 0.47014905363396076 4.205989022166745 0.47884088487761384 L 4.205989022166745 0.5412640365365767 Q 4.205989022166745 0.5499558677802298 4.200457856829874 0.5554870331170999 Q 4.194926691493004 0.56101819845397 4.186234860249351 0.56101819845397 L 3.821968114492618 0.56101819845397 M 4.673777993604442 0.5689198632209274 Q 4.597922011841652 0.5689198632209274 4.546956274094777 0.5467952018734469 Q 4.495990536347902 0.5246705405259664 4.469915042616943 0.48911304907465836 Q 4.443839548885983 0.4535555576233504 4.442259215932592 0.41325706731186806 Q 4.442259215932592 0.4069357354983022 4.447000214792767 0.4017996533997799 Q 4.451741213652941 0.3966635713012576 4.458852711943202 0.3966635713012576 L 4.543400524949646 0.3966635713012576 Q 4.5536726891466905 0.3966635713012576 4.5592038544835605 0.40100948692308414 Q 4.56473501982043 0.4053554025449107 4.569476018680605 0.41167673435847657 Q 4.575007184017475 0.425109564462304 4.587254764406259 0.43775222808943576 Q 4.5995023447950425 0.4503948917165675 4.620836839665827 0.45869163972187266 Q 4.642171334536613 0.4669883877271779 4.673777993604442 0.4669883877271779 Q 4.7251388145896644 0.4669883877271779 4.750819225082275 0.4503948917165675 Q 4.776499635574887 0.4338013957059571 4.776499635574887 0.4053554025449107 Q 4.776499635574887 0.38481107415082166 4.762671722232712 0.37216841052368993 Q 4.748843808890537 0.3595257468965582 4.719212566014447 0.3492535826995137 Q 4.6895813231383565 0.33898141850246916 4.640591001583221 0.3271289213520332 Q 4.581328515831041 0.31448625772490146 4.539844775804515 0.2943370125691603 Q 4.4983610357779895 0.2741877674134191 4.477421624145552 0.2421860251072419 Q 4.456482212513115 0.21018428280106471 4.456482212513115 0.16277429419932077 Q 4.456482212513115 0.11536430559757682 4.482557706244075 0.07862156443122525 Q 4.5086331999750335 0.04187882326487369 4.556043188576778 0.020939411632436733 Q 4.603453177178522 -2.220446049250313e-16 4.669036994744268 -2.220446049250313e-16 Q 4.721978148682881 -2.220446049250313e-16 4.762671722232712 0.014222996580523062 Q 4.803365295782542 0.028445993161046235 4.8306260392285445 0.05136082098522243 Q 4.857886782674547 0.07427564880939869 4.87210977925507 0.10035114254035787 Q 4.886332775835594 0.12642663627131706 4.887122942312289 0.15092179704888475 Q 4.887122942312289 0.15724312886245062 4.882381943452115 0.1623792109609729 Q 4.877640944591941 0.16751529305949514 4.8705294463016795 0.16751529305949514 L 4.782030800911757 0.16751529305949514 Q 4.7741291361448 0.16751529305949514 4.767807804331234 0.1643546271527122 Q 4.761486472517668 0.16119396124592927 4.757535640134189 0.15329229647897197 Q 4.752794641274015 0.13274796808488293 4.729484730211491 0.11733972178931612 Q 4.706174819148967 0.10193147549374937 4.669036994744268 0.10193147549374937 Q 4.630318837386176 0.10193147549374937 4.607799092800348 0.11615447207427254 Q 4.585279348214519 0.13037746865479571 4.585279348214519 0.15961362829253783 Q 4.585279348214519 0.17857762373323544 4.596736762126608 0.19161537059871503 Q 4.608194176038696 0.20465311746419462 4.635454919484698 0.21453019842289128 Q 4.662715662930702 0.2244072793815879 4.707755152102358 0.2362597765320239 Q 4.777289802051583 0.2504827731125471 4.820748958269848 0.2702369350299404 Q 4.864208114488114 0.2899910969473337 4.884752442882203 0.32120267277681513 Q 4.905296771276292 0.3524142486062966 4.905296771276292 0.3998242372080406 Q 4.905296771276292 0.45276539114665465 4.8756655284002015 0.49069338202804985 Q 4.846034285524111 0.528621372909445 4.794278381300541 0.5487706180651862 Q 4.742522477076971 0.5689198632209274 4.673777993604442 0.5689198632209274 M 5.209493116924301 0.5689198632209274 Q 5.135217468114902 0.5689198632209274 5.083461563891332 0.5440296192050118 Q 5.031705659667761 0.5191393751890963 5.003259666506715 0.4713343033490044 Q 4.974813673345668 0.42352923150891253 4.971653007438885 0.3547847480363838 Q 4.970862840962189 0.32238792249185877 4.970862840962189 0.28525009808715934 Q 4.970862840962189 0.24811227368245992 4.971653007438885 0.21413511518454337 Q 4.974813673345668 0.14618079818871038 5.0036547497450625 0.09837572634861852 Q 5.032495826144457 0.05057065450852671 5.084646813606375 0.025285327254263246 Q 5.136797801068293 -2.220446049250313e-16 5.209493116924301 -2.220446049250313e-16 Q 5.262434270862915 -2.220446049250313e-16 5.30589342708118 0.013432830103827231 Q 5.349352583299446 0.026865660207654685 5.3809592423672745 0.05215098746191815 Q 5.412565901435104 0.07743631471618162 5.42994956392241 0.11141347321409811 Q 5.447333226409716 0.14539063171201466 5.448913559363108 0.18726945497688846 Q 5.448913559363108 0.19438095326715005 5.443777477264586 0.19912195212732448 Q 5.438641395166063 0.20386295098749885 5.4315298968758015 0.20386295098749885 L 5.341450918532488 0.20386295098749885 Q 5.331968920812139 0.20386295098749885 5.326437755475269 0.19912195212732448 Q 5.320906590138399 0.19438095326715005 5.317745924231616 0.1833186225934098 Q 5.30589342708118 0.13669880046836158 5.27823760039683 0.11931513798105547 Q 5.250581773712479 0.10193147549374937 5.209493116924301 0.10193147549374937 Q 5.160502795369165 0.10193147549374937 5.132056802208119 0.12879713570140428 Q 5.103610809047073 0.15566279590905918 5.101240309616985 0.21808594756802208 Q 5.0988698101868986 0.28287959865707213 5.101240309616985 0.3508339156529051 Q 5.103610809047073 0.41325706731186806 5.132056802208119 0.44012272751952297 Q 5.160502795369165 0.4669883877271779 5.209493116924301 0.4669883877271779 Q 5.250581773712479 0.4669883877271779 5.278632683635178 0.44920964200152386 Q 5.306683593557876 0.4314308962758699 5.317745924231616 0.3856012406275174 Q 5.320906590138399 0.3737487434770814 5.326437755475269 0.36940282785525486 Q 5.331968920812139 0.36505691223342834 5.341450918532488 0.36505691223342834 L 5.4315298968758015 0.36505691223342834 Q 5.438641395166063 0.36505691223342834 5.443777477264586 0.3697979110936027 Q 5.448913559363108 0.37453890995377714 5.448913559363108 0.38165040824403873 Q 5.447333226409716 0.42352923150891253 5.42994956392241 0.4575063900068291 Q 5.412565901435104 0.49148354850474557 5.3809592423672745 0.516768875759009 Q 5.349352583299446 0.5420542030132725 5.30589342708118 0.5554870331170999 Q 5.262434270862915 0.5689198632209274 5.209493116924301 0.5689198632209274 M 5.557160965141774 0.56101819845397 Q 5.548469133898121 0.56101819845397 5.542937968561251 0.5554870331170999 Q 5.537406803224381 0.5499558677802298 5.537406803224381 0.5412640365365767 L 5.537406803224381 0.027655826684350515 Q 5.537406803224381 0.01896399544069738 5.542937968561251 0.013432830103827231 Q 5.548469133898121 0.007901664766957195 5.557160965141774 0.007901664766957195 L 5.7665550814661435 0.007901664766957195 Q 5.86532589105311 0.007901664766957195 5.9222178773752026 0.05333623717696179 Q 5.979109863697295 0.09877080958696643 5.979109863697295 0.18410878907010553 Q 5.979109863697295 0.24179094186889405 5.951454037012945 0.2805090992269849 Q 5.923798210328594 0.31922725658507584 5.877178388203546 0.33819125202577344 L 5.988591861417644 0.5357328711997066 Q 5.990962360847732 0.540473870059881 5.990962360847732 0.5444247024433597 Q 5.990962360847732 0.5507460342569255 5.986221361987557 0.5558821163554478 Q 5.981480363127383 0.56101819845397 5.974368864837121 0.56101819845397 L 5.886660385923895 0.56101819845397 Q 5.8724373893433714 0.56101819845397 5.86532589105311 0.5535116169253606 Q 5.858214392762848 0.5460050353967512 5.855053726856066 0.5396837035831853 L 5.758653416699186 0.3587355804198625 L 5.663043273019002 0.3587355804198625 L 5.663043273019002 0.5412640365365767 Q 5.663043273019002 0.5499558677802298 5.657512107682132 0.5554870331170999 Q 5.651980942345262 0.56101819845397 5.643289111101609 0.56101819845397 L 5.557160965141774 0.56101819845397 M 5.663043273019002 0.25838443787950444 L 5.764184582036056 0.25838443787950444 Q 5.807643738254321 0.25838443787950444 5.828583149886758 0.23863027596211112 Q 5.849522561519195 0.2188761140447178 5.849522561519195 0.1833186225934098 Q 5.849522561519195 0.14776113114210182 5.828978233125106 0.12721680274801278 Q 5.808433904731017 0.10667247435392374 5.764184582036056 0.10667247435392374 L 5.663043273019002 0.10667247435392374 L 5.663043273019002 0.25838443787950444 M 6.096059903776913 0.56101819845397 Q 6.08736807253326 0.56101819845397 6.08183690719639 0.5554870331170999 Q 6.07630574185952 0.5499558677802298 6.07630574185952 0.5412640365365767 L 6.07630574185952 0.027655826684350515 Q 6.07630574185952 0.01896399544069738 6.08183690719639 0.013432830103827231 Q 6.08736807253326 0.007901664766957195 6.096059903776913 0.007901664766957195 L 6.45400531772008 0.007901664766957195 Q 6.462697148963733 0.007901664766957195 6.468228314300603 0.013432830103827231 Q 6.473759479637473 0.01896399544069738 6.473759479637473 0.027655826684350515 L 6.473759479637473 0.09086914482000907 Q 6.473759479637473 0.09877080958696643 6.468228314300603 0.10430197492383653 Q 6.462697148963733 0.10983314026070667 6.45400531772008 0.10983314026070667 L 6.197991379270663 0.10983314026070667 L 6.197991379270663 0.2338892771019367 L 6.436621655232774 0.2338892771019367 Q 6.445313486476427 0.2338892771019367 6.450844651813298 0.23942044243880684 Q 6.4563758171501675 0.24495160777567698 6.4563758171501675 0.25364343901933 L 6.4563758171501675 0.31211575829481425 Q 6.4563758171501675 0.3200174230617716 6.450844651813298 0.3255485883986417 Q 6.445313486476427 0.3310797537355118 6.436621655232774 0.3310797537355118 L 6.197991379270663 0.3310797537355118 L 6.197991379270663 0.4590867229602205 L 6.460326649533646 0.4590867229602205 Q 6.469018480777299 0.4590867229602205 6.474549646114169 0.46461788829709066 Q 6.48008081145104 0.47014905363396076 6.48008081145104 0.47884088487761384 L 6.48008081145104 0.5412640365365767 Q 6.48008081145104 0.5499558677802298 6.474549646114169 0.5554870331170999 Q 6.469018480777299 0.56101819845397 6.460326649533646 0.56101819845397 L 6.096059903776913 0.56101819845397 M 6.593868642329975 0.56101819845397 Q 6.585176811086321 0.56101819845397 6.579645645749451 0.5554870331170999 Q 6.5741144804125815 0.5499558677802298 6.5741144804125815 0.5412640365365767 L 6.5741144804125815 0.027655826684350515 Q 6.5741144804125815 0.01896399544069738 6.579645645749451 0.013432830103827231 Q 6.585176811086321 0.007901664766957195 6.593868642329975 0.007901664766957195 L 6.951814056273141 0.007901664766957195 Q 6.960505887516795 0.007901664766957195 6.966037052853665 0.013432830103827231 Q 6.9715682181905345 0.01896399544069738 6.9715682181905345 0.027655826684350515 L 6.9715682181905345 0.09086914482000907 Q 6.9715682181905345 0.09877080958696643 6.966037052853665 0.10430197492383653 Q 6.960505887516795 0.10983314026070667 6.951814056273141 0.10983314026070667 L 6.695800117823724 0.10983314026070667 L 6.695800117823724 0.2338892771019367 L 6.934430393785836 0.2338892771019367 Q 6.943122225029488 0.2338892771019367 6.948653390366359 0.23942044243880684 Q 6.954184555703229 0.24495160777567698 6.954184555703229 0.25364343901933 L 6.954184555703229 0.31211575829481425 Q 6.954184555703229 0.3200174230617716 6.948653390366359 0.3255485883986417 Q 6.943122225029488 0.3310797537355118 6.934430393785836 0.3310797537355118 L 6.695800117823724 0.3310797537355118 L 6.695800117823724 0.4590867229602205 L 6.958135388086707 0.4590867229602205 Q 6.96682721933036 0.4590867229602205 6.97235838466723 0.46461788829709066 Q 6.977889550004101 0.47014905363396076 6.977889550004101 0.47884088487761384 L 6.977889550004101 0.5412640365365767 Q 6.977889550004101 0.5499558677802298 6.97235838466723 0.5554870331170999 Q 6.96682721933036 0.56101819845397 6.958135388086707 0.56101819845397 L 6.593868642329975 0.56101819845397 M 7.091677380883036 0.56101819845397 Q 7.082985549639383 0.56101819845397 7.077454384302513 0.5554870331170999 Q 7.071923218965643 0.5499558677802298 7.071923218965643 0.5412640365365767 L 7.071923218965643 0.027655826684350515 Q 7.071923218965643 0.01896399544069738 7.077454384302513 0.013432830103827231 Q 7.082985549639383 0.007901664766957195 7.091677380883036 0.007901664766957195 L 7.163582530262348 0.007901664766957195 Q 7.175435027412783 0.007901664766957195 7.180966192749654 0.013432830103827231 Q 7.186497358086524 0.01896399544069738 7.188077691039916 0.022124661347480368 L 7.399052140317676 0.3516240821296009 L 7.399052140317676 0.027655826684350515 Q 7.399052140317676 0.01896399544069738 7.404583305654546 0.013432830103827231 Q 7.410114470991417 0.007901664766957195 7.418016135758374 0.007901664766957195 L 7.498613116381338 0.007901664766957195 Q 7.507304947624991 0.007901664766957195 7.512836112961861 0.013432830103827231 Q 7.518367278298732 0.01896399544069738 7.518367278298732 0.027655826684350515 L 7.518367278298732 0.5412640365365767 Q 7.518367278298732 0.549165701303534 7.512836112961861 0.5550919498787521 Q 7.507304947624991 0.56101819845397 7.498613116381338 0.56101819845397 L 7.4259178005253315 0.56101819845397 Q 7.414065303374895 0.56101819845397 7.408929221276373 0.5550919498787521 Q 7.403793139177851 0.549165701303534 7.401422639747763 0.5467952018734469 L 7.191238356946698 0.22756794528837082 L 7.191238356946698 0.5412640365365767 Q 7.191238356946698 0.5499558677802298 7.185707191609828 0.5554870331170999 Q 7.180176026272958 0.56101819845397 7.171484195029305 0.56101819845397 L 7.091677380883036 0.56101819845397 M 7.6550761101774425 0.56101819845397 Q 7.646384278933789 0.56101819845397 7.640853113596919 0.5554870331170999 Q 7.635321948260049 0.5499558677802298 7.635321948260049 0.5412640365365767 L 7.635321948260049 0.027655826684350515 Q 7.635321948260049 0.01896399544069738 7.640853113596919 0.013432830103827231 Q 7.646384278933789 0.007901664766957195 7.6550761101774425 0.007901664766957195 L 8.01302152412061 0.007901664766957195 Q 8.021713355364263 0.007901664766957195 8.027244520701133 0.013432830103827231 Q 8.032775686038002 0.01896399544069738 8.032775686038002 0.027655826684350515 L 8.032775686038002 0.09086914482000907 Q 8.032775686038002 0.09877080958696643 8.027244520701133 0.10430197492383653 Q 8.021713355364263 0.10983314026070667 8.01302152412061 0.10983314026070667 L 7.757007585671192 0.10983314026070667 L 7.757007585671192 0.2338892771019367 L 7.995637861633304 0.2338892771019367 Q 8.004329692876956 0.2338892771019367 8.009860858213827 0.23942044243880684 Q 8.015392023550696 0.24495160777567698 8.015392023550696 0.25364343901933 L 8.015392023550696 0.31211575829481425 Q 8.015392023550696 0.3200174230617716 8.009860858213827 0.3255485883986417 Q 8.004329692876956 0.3310797537355118 7.995637861633304 0.3310797537355118 L 7.757007585671192 0.3310797537355118 L 7.757007585671192 0.4590867229602205 L 8.019342855934175 0.4590867229602205 Q 8.02803468717783 0.4590867229602205 8.033565852514698 0.46461788829709066 Q 8.039097017851569 0.47014905363396076 8.039097017851569 0.47884088487761384 L 8.039097017851569 0.5412640365365767 Q 8.039097017851569 0.5499558677802298 8.033565852514698 0.5554870331170999 Q 8.02803468717783 0.56101819845397 8.019342855934175 0.56101819845397 L 7.6550761101774425 0.56101819845397 M 8.152884848730505 0.56101819845397 Q 8.14419301748685 0.56101819845397 8.138661852149982 0.5554870331170999 Q 8.13313068681311 0.5499558677802298 8.13313068681311 0.5412640365365767 L 8.13313068681311 0.027655826684350515 Q 8.13313068681311 0.01896399544069738 8.138661852149982 0.013432830103827231 Q 8.14419301748685 0.007901664766957195 8.152884848730505 0.007901664766957195 L 8.362278965054873 0.007901664766957195 Q 8.46104977464184 0.007901664766957195 8.517941760963932 0.05333623717696179 Q 8.574833747286025 0.09877080958696643 8.574833747286025 0.18410878907010553 Q 8.574833747286025 0.24179094186889405 8.547177920601674 0.2805090992269849 Q 8.519522093917324 0.31922725658507584 8.472902271792275 0.33819125202577344 L 8.584315745006375 0.5357328711997066 Q 8.58668624443646 0.540473870059881 8.58668624443646 0.5444247024433597 Q 8.58668624443646 0.5507460342569255 8.581945245576287 0.5558821163554478 Q 8.577204246716112 0.56101819845397 8.57009274842585 0.56101819845397 L 8.482384269512625 0.56101819845397 Q 8.468161272932102 0.56101819845397 8.46104977464184 0.5535116169253606 Q 8.453938276351579 0.5460050353967512 8.450777610444796 0.5396837035831853 L 8.354377300287915 0.3587355804198625 L 8.258767156607732 0.3587355804198625 L 8.258767156607732 0.5412640365365767 Q 8.258767156607732 0.5499558677802298 8.253235991270863 0.5554870331170999 Q 8.247704825933992 0.56101819845397 8.23901299469034 0.56101819845397 L 8.152884848730505 0.56101819845397 M 8.258767156607732 0.25838443787950444 L 8.359908465624786 0.25838443787950444 Q 8.403367621843051 0.25838443787950444 8.424307033475488 0.23863027596211112 Q 8.445246445107925 0.2188761140447178 8.445246445107925 0.1833186225934098 Q 8.445246445107925 0.14776113114210182 8.424702116713837 0.12721680274801278 Q 8.404157788319747 0.10667247435392374 8.359908465624786 0.10667247435392374 L 8.258767156607732 0.10667247435392374 L 8.258767156607732 0.25838443787950444" fill="#ebebeb" fill-rule="nonzero"></path></g><g></g></g><defs><clipPath id="SvgjsClipPath4287"><path d=" M -2.7735895327033155 -7.663145490521814 h 14.160736371579395 v 7.413145490521814 h -14.160736371579395 Z"></path></clipPath><clipPath id="SvgjsClipPath42823280198e-7cf6-4145-9131-4a50592592c9"><path d=" M -2.7735895327033155 -7.6631454905218135 L 11.38714683887608 -7.6631454905218135 L 11.38714683887608 -0.25 L -2.7735895327033155 -0.25 Z"></path></clipPath></defs></svg>